<?xml version="1.0" encoding="UTF-8" standalone="no"?>
<!-- Created with Inkscape (http://www.inkscape.org/) -->

<svg
   xmlns:dc="http://purl.org/dc/elements/1.1/"
   xmlns:cc="http://creativecommons.org/ns#"
   xmlns:rdf="http://www.w3.org/1999/02/22-rdf-syntax-ns#"
   xmlns:svg="http://www.w3.org/2000/svg"
   xmlns="http://www.w3.org/2000/svg"
   xmlns:sodipodi="http://sodipodi.sourceforge.net/DTD/sodipodi-0.dtd"
   xmlns:inkscape="http://www.inkscape.org/namespaces/inkscape"
   width="74.362236mm"
   height="9.7860718mm"
   viewBox="0 0 74.362236 9.7860718"
   version="1.1"
   id="svg8"
   inkscape:version="0.92.3 (2405546, 2018-03-11)"
   sodipodi:docname="bandImage1.svg">
  <defs
     id="defs2" />
  <sodipodi:namedview
     id="base"
     pagecolor="#ffffff"
     bordercolor="#666666"
     borderopacity="1.0"
     inkscape:pageopacity="0.0"
     inkscape:pageshadow="2"
     inkscape:zoom="2.0801023"
     inkscape:cx="157.18644"
     inkscape:cy="32.630783"
     inkscape:document-units="mm"
     inkscape:current-layer="layer1-5"
     showgrid="true"
     inkscape:window-width="1920"
     inkscape:window-height="1013"
     inkscape:window-x="-9"
     inkscape:window-y="-9"
     inkscape:window-maximized="1">
    <inkscape:grid
       type="xygrid"
       id="grid28" />
  </sodipodi:namedview>
  <metadata
     id="metadata5">
    <rdf:RDF>
      <cc:Work
         rdf:about="">
        <dc:format>image/svg+xml</dc:format>
        <dc:type
           rdf:resource="http://purl.org/dc/dcmitype/StillImage" />
        <dc:title />
      </cc:Work>
    </rdf:RDF>
  </metadata>
  <g
     inkscape:label="Layer 1"
     inkscape:groupmode="layer"
     id="layer1"
     transform="translate(-1.9009686,-3.4707468)">
    <g
       transform="matrix(0.28222224,0,0,0.28222224,-75.170814,-112.55148)"
       id="layer1-5"
       inkscape:label="Layer 1">
      <g
         inkscape:export-ydpi="150.117"
         inkscape:export-xdpi="150.117"
         transform="translate(5.6389764,-4.4098475)"
         id="g5161">
        <g
           transform="translate(176.45,398.28184)"
           id="g5">
          <path
             style="fill:#414042"
             inkscape:connector-curvature="0"
             d="m 117.6,21.8 h 2 c 0.8,0 1.4,-0.6 1.4,-1.4 v -1.1 c 0,-0.8 -0.6,-1.4 -1.4,-1.4 H 92.4 c -0.8,0 -1.4,0.6 -1.4,1.4 v 1.1 c 0,0.8 0.6,1.4 1.4,1.4 h 2 c 0.1,5.2 2.2,10 5.5,12.8 -3.3,2.8 -5.4,7.7 -5.5,13.2 h -2 c -0.8,0 -1.4,0.6 -1.4,1.4 v 1 c 0,0.8 0.6,1.4 1.4,1.4 h 27.2 c 0.8,0 1.4,-0.6 1.4,-1.4 v -1 c 0,-0.8 -0.6,-1.4 -1.4,-1.4 h -2 c -0.1,-5.4 -2.2,-10.3 -5.5,-13.2 3.3,-2.8 5.4,-7.6 5.5,-12.8 z m -9.1,13.9 0.5,0.3 c 3.6,1.8 6,6.4 6.1,11.7 H 96.9 C 97,42.4 99.4,37.8 103,36 l 0.5,-0.3 c 0.5,-0.2 0.7,-0.7 0.7,-1.2 0,-0.5 -0.3,-1 -0.7,-1.2 L 103,33 C 99.5,31.3 97.1,26.8 96.9,21.7 H 115 c -0.2,5.1 -2.6,9.6 -6.1,11.3 l -0.5,0.3 c -0.5,0.2 -0.7,0.7 -0.7,1.2 0,0.6 0.3,1 0.8,1.2 z m 0,0"
             id="path7" />
          <path
             style="fill:#414042"
             inkscape:connector-curvature="0"
             d="m 100.2,46.4 h 12.3 c -0.4,-3 -3,-5.4 -6.1,-5.4 -3.2,0 -5.7,2.4 -6.2,5.4 z m 0,0"
             id="path9" />
          <path
             style="fill:#414042"
             inkscape:connector-curvature="0"
             d="m 110.6,30.3 h -9.2 c 1.1,1.3 2.8,2.1 4.6,2.1 1.8,0 3.4,-0.9 4.6,-2.1 z m 0,0"
             id="path11" />
        </g>
        <g
           transform="translate(174.44107,399.28631)"
           id="g13">
          <text
             xml:space="preserve"
             style="font-style:normal;font-weight:normal;font-size:37.49999619px;line-height:1.25;font-family:sans-serif;letter-spacing:0px;word-spacing:0px;fill:#000000;fill-opacity:1;stroke:none;stroke-width:0.93749994"
             x="131.51338"
             y="30.476837"
             id="text26"><tspan
               sodipodi:role="line"
               id="tspan24"
               x="131.51338"
               y="30.476837"
               style="font-style:normal;font-variant:normal;font-weight:normal;font-stretch:normal;font-size:22.49999809px;font-family:'Arabic Typesetting';-inkscape-font-specification:'Arabic Typesetting, Normal';font-variant-ligatures:normal;font-variant-caps:normal;font-variant-numeric:normal;font-feature-settings:normal;text-align:start;writing-mode:lr-tb;text-anchor:start;fill:#4d4d4d;stroke-width:0.93749994">Start your Journey now</tspan></text>
        </g>
        <g
           aria-label="connect@theactorslaunchingpad.com"
           transform="matrix(0.94313979,0,0,1.2745591,-24.42035,-53.4698)"
           style="font-style:normal;font-variant:normal;font-weight:bold;font-stretch:normal;font-size:10.11862469px;line-height:1.25;font-family:Bahnschrift;-inkscape-font-specification:'Bahnschrift, Bold';font-variant-ligatures:normal;font-variant-caps:normal;font-variant-numeric:normal;font-feature-settings:normal;text-align:start;letter-spacing:0px;word-spacing:0px;writing-mode:lr-tb;text-anchor:start;fill:#4d4d4d;fill-opacity:1;stroke:none;stroke-width:0.25297791"
           id="text104">
          <path
             d="m 350.27347,390.98814 q -0.73123,0 -1.25495,-0.27668 -0.51878,-0.28162 -0.79052,-0.81522 -0.27174,-0.5336 -0.27174,-1.28459 v -0.54842 q 0,-0.74605 0.27174,-1.26977 0.27174,-0.52866 0.79052,-0.80534 0.52372,-0.27668 1.25495,-0.27668 0.41996,0 0.79051,0.0988 0.3755,0.0939 0.67194,0.27668 0.29645,0.18281 0.49408,0.44467 v 0 l -0.87451,0.84981 v 0 q -0.18775,-0.17293 -0.43973,-0.2668 -0.25198,-0.0988 -0.52866,-0.0988 -0.51383,0 -0.79546,0.27668 -0.28162,0.27174 -0.28162,0.77076 v 0.54842 q 0,0.51384 0.28162,0.79546 0.28163,0.27668 0.79546,0.27668 0.28162,0 0.5336,-0.10376 0.25198,-0.10375 0.43479,-0.29644 v 0 l 0.87451,0.89921 v 0 q -0.20257,0.25692 -0.49902,0.43973 -0.29644,0.17787 -0.667,0.27174 -0.37055,0.0939 -0.79051,0.0939 z"
             style="font-style:normal;font-variant:normal;font-weight:bold;font-stretch:normal;font-size:10.11862469px;font-family:Bahnschrift;-inkscape-font-specification:'Bahnschrift, Bold';font-variant-ligatures:normal;font-variant-caps:normal;font-variant-numeric:normal;font-feature-settings:normal;text-align:start;writing-mode:lr-tb;text-anchor:start;fill:#4d4d4d;fill-opacity:1;stroke-width:0.25297791"
             id="path824"
             inkscape:connector-curvature="0" />
          <path
             d="m 355.20926,390.98814 q -0.70158,0 -1.2006,-0.26186 -0.49407,-0.26185 -0.75593,-0.76087 -0.25692,-0.50395 -0.25692,-1.21048 v -0.83498 q 0,-0.69665 0.25692,-1.19072 0.26186,-0.49901 0.75593,-0.75593 0.49902,-0.26186 1.2006,-0.26186 0.70158,0 1.19566,0.26186 0.49901,0.25692 0.75593,0.75593 0.26186,0.49407 0.26186,1.19072 v 0.8498 q 0,0.70159 -0.26186,1.2006 -0.25692,0.49408 -0.75593,0.75593 -0.49408,0.26186 -1.19566,0.26186 z m -0.005,-1.30435 q 0.41008,0 0.63735,-0.23716 0.22728,-0.24209 0.22728,-0.67688 v -0.8498 q 0,-0.42985 -0.22728,-0.667 -0.22727,-0.23716 -0.63735,-0.23716 -0.40514,0 -0.63241,0.23716 -0.22234,0.23715 -0.22234,0.667 v 0.8498 q 0,0.43479 0.22234,0.67688 0.22233,0.23716 0.63241,0.23716 z"
             style="font-style:normal;font-variant:normal;font-weight:bold;font-stretch:normal;font-size:10.11862469px;font-family:Bahnschrift;-inkscape-font-specification:'Bahnschrift, Bold';font-variant-ligatures:normal;font-variant-caps:normal;font-variant-numeric:normal;font-feature-settings:normal;text-align:start;writing-mode:lr-tb;text-anchor:start;fill:#4d4d4d;fill-opacity:1;stroke-width:0.25297791"
             id="path826"
             inkscape:connector-curvature="0" />
          <path
             d="m 358.65789,385.78555 h 1.35376 v 5.12848 h -1.35376 z m 2.96444,2.02076 q 0,-0.3755 -0.21739,-0.58301 -0.21245,-0.20751 -0.60771,-0.20751 -0.37549,0 -0.58301,0.21245 -0.20257,0.20751 -0.20257,0.58795 l -0.10375,-1.13637 q 0.23221,-0.48419 0.55336,-0.72629 0.32609,-0.24209 0.81522,-0.24209 0.81028,0 1.25495,0.54842 0.44467,0.54348 0.44467,1.54151 v 3.11266 h -1.35377 z"
             style="font-style:normal;font-variant:normal;font-weight:bold;font-stretch:normal;font-size:10.11862469px;font-family:Bahnschrift;-inkscape-font-specification:'Bahnschrift, Bold';font-variant-ligatures:normal;font-variant-caps:normal;font-variant-numeric:normal;font-feature-settings:normal;text-align:start;writing-mode:lr-tb;text-anchor:start;fill:#4d4d4d;fill-opacity:1;stroke-width:0.25297791"
             id="path828"
             inkscape:connector-curvature="0" />
          <path
             d="m 364.31009,385.78555 h 1.35377 v 5.12848 h -1.35377 z m 2.96444,2.02076 q 0,-0.3755 -0.21739,-0.58301 -0.21245,-0.20751 -0.60771,-0.20751 -0.37549,0 -0.583,0.21245 -0.20257,0.20751 -0.20257,0.58795 l -0.10376,-1.13637 q 0.23221,-0.48419 0.55336,-0.72629 0.32609,-0.24209 0.81522,-0.24209 0.81028,0 1.25495,0.54842 0.44467,0.54348 0.44467,1.54151 v 3.11266 h -1.35377 z"
             style="font-style:normal;font-variant:normal;font-weight:bold;font-stretch:normal;font-size:10.11862469px;font-family:Bahnschrift;-inkscape-font-specification:'Bahnschrift, Bold';font-variant-ligatures:normal;font-variant-caps:normal;font-variant-numeric:normal;font-feature-settings:normal;text-align:start;writing-mode:lr-tb;text-anchor:start;fill:#4d4d4d;fill-opacity:1;stroke-width:0.25297791"
             id="path830"
             inkscape:connector-curvature="0" />
          <path
             d="m 372.16092,390.98814 q -0.74111,0 -1.26977,-0.2668 -0.52372,-0.27174 -0.8004,-0.78557 -0.27668,-0.51878 -0.27668,-1.24507 v -0.57806 q 0,-0.76088 0.26186,-1.29942 0.2668,-0.53854 0.77076,-0.82016 0.50889,-0.28162 1.2253,-0.28162 0.67194,0 1.15119,0.33597 0.47925,0.33597 0.72629,0.97826 0.25197,0.63736 0.25197,1.54151 v 0.33597 h -3.50792 v -0.91403 h 2.27274 l -0.0148,-0.11858 q -0.0543,-0.44467 -0.28162,-0.68676 -0.22234,-0.2421 -0.59783,-0.2421 -0.48913,0 -0.76087,0.2915 -0.2668,0.29151 -0.2668,0.82511 v 0.65217 q 0,0.52372 0.2915,0.81028 0.29644,0.28657 0.8251,0.28657 0.27174,0 0.53854,-0.0939 0.2668,-0.0988 0.48419,-0.27668 v 0 l 0.8844,0.78558 v 0 q -0.4002,0.36561 -0.89922,0.56818 -0.49901,0.19763 -1.00791,0.19763 z"
             style="font-style:normal;font-variant:normal;font-weight:bold;font-stretch:normal;font-size:10.11862469px;font-family:Bahnschrift;-inkscape-font-specification:'Bahnschrift, Bold';font-variant-ligatures:normal;font-variant-caps:normal;font-variant-numeric:normal;font-feature-settings:normal;text-align:start;writing-mode:lr-tb;text-anchor:start;fill:#4d4d4d;fill-opacity:1;stroke-width:0.25297791"
             id="path832"
             inkscape:connector-curvature="0" />
          <path
             d="m 377.56608,390.98814 q -0.73122,0 -1.25494,-0.27668 -0.51878,-0.28162 -0.79052,-0.81522 -0.27174,-0.5336 -0.27174,-1.28459 v -0.54842 q 0,-0.74605 0.27174,-1.26977 0.27174,-0.52866 0.79052,-0.80534 0.52372,-0.27668 1.25494,-0.27668 0.41997,0 0.79052,0.0988 0.3755,0.0939 0.67194,0.27668 0.29645,0.18281 0.49407,0.44467 v 0 l -0.87451,0.84981 v 0 q -0.18774,-0.17293 -0.43972,-0.2668 -0.25198,-0.0988 -0.52866,-0.0988 -0.51384,0 -0.79546,0.27668 -0.28162,0.27174 -0.28162,0.77076 v 0.54842 q 0,0.51384 0.28162,0.79546 0.28162,0.27668 0.79546,0.27668 0.28162,0 0.5336,-0.10376 0.25198,-0.10375 0.43478,-0.29644 v 0 l 0.87451,0.89921 v 0 q -0.20257,0.25692 -0.49901,0.43973 -0.29644,0.17787 -0.667,0.27174 -0.37055,0.0939 -0.79052,0.0939 z"
             style="font-style:normal;font-variant:normal;font-weight:bold;font-stretch:normal;font-size:10.11862469px;font-family:Bahnschrift;-inkscape-font-specification:'Bahnschrift, Bold';font-variant-ligatures:normal;font-variant-caps:normal;font-variant-numeric:normal;font-feature-settings:normal;text-align:start;writing-mode:lr-tb;text-anchor:start;fill:#4d4d4d;fill-opacity:1;stroke-width:0.25297791"
             id="path834"
             inkscape:connector-curvature="0" />
          <path
             d="m 381.86947,390.93874 q -0.67194,0 -0.98815,-0.34092 -0.31127,-0.34585 -0.31127,-1.01779 v -5.28658 h 1.35376 v 4.95061 q 0,0.18775 0.0741,0.29151 0.0741,0.0988 0.2174,0.0988 h 0.33597 v 1.30436 z m -1.82808,-5.15319 h 2.5099 v 1.15613 h -2.5099 z"
             style="font-style:normal;font-variant:normal;font-weight:bold;font-stretch:normal;font-size:10.11862469px;font-family:Bahnschrift;-inkscape-font-specification:'Bahnschrift, Bold';font-variant-ligatures:normal;font-variant-caps:normal;font-variant-numeric:normal;font-feature-settings:normal;text-align:start;writing-mode:lr-tb;text-anchor:start;fill:#4d4d4d;fill-opacity:1;stroke-width:0.25297791"
             id="path836"
             inkscape:connector-curvature="0" />
          <path
             d="m 387.31416,390.98814 q -0.82017,0 -1.23025,-0.54842 -0.40514,-0.55336 -0.40514,-1.66503 v -0.8498 q 0,-1.11167 0.46443,-1.66009 0.46937,-0.55336 1.40811,-0.55336 0.93874,0 1.40317,0.55336 0.46443,0.54842 0.46443,1.66503 v 1.59586 l -0.62253,0.28656 q -0.0988,0.58795 -0.46937,0.88439 -0.36562,0.2915 -1.01285,0.2915 z m 0.23715,-1.25494 q 0.28162,0 0.41996,-0.22728 0.13834,-0.22727 0.13834,-0.6917 v -0.94368 q 0,-0.45455 -0.13834,-0.67688 -0.13834,-0.22728 -0.41996,-0.22728 -0.57312,0 -0.57312,0.9091 v 0.93874 q 0,0.46443 0.14328,0.6917 0.14328,0.22728 0.42984,0.22728 z m 0.0148,3.06819 q -1.29941,0 -2.1591,-0.41008 -0.85969,-0.40514 -1.28953,-1.22036 -0.42984,-0.81522 -0.42984,-2.04546 0,-0.33597 0,-0.67194 0,-0.33597 0.005,-0.67194 0.01,-1.334 0.43972,-2.21839 0.43479,-0.8844 1.28953,-1.32412 0.85475,-0.43973 2.14428,-0.43973 1.26483,0 2.11958,0.44467 0.85969,0.43973 1.28953,1.32906 0.43478,0.88439 0.43478,2.20851 v 1.54151 q 0,0.85474 -0.38043,1.25988 -0.38044,0.40514 -1.10673,0.40514 -0.82016,0 -1.2253,-0.38537 -0.40514,-0.38538 -0.40514,-1.16602 l 1.12649,-0.0296 q 0,0.26186 0.0988,0.39526 0.10376,0.12846 0.31621,0.12846 0.19763,0 0.28162,-0.11858 0.0889,-0.12352 0.0889,-0.39032 v -1.64032 q 0,-0.95357 -0.30139,-1.59092 -0.29644,-0.6423 -0.88439,-0.96344 -0.58795,-0.32115 -1.45258,-0.32115 -0.88439,0 -1.47234,0.32115 -0.58794,0.3162 -0.88933,0.95356 -0.29644,0.63735 -0.30632,1.6008 -0.005,0.33103 -0.005,0.667 0,0.33597 0,0.67688 0,0.85968 0.29644,1.43281 0.29644,0.56818 0.88933,0.84981 0.59289,0.28656 1.48716,0.28656 h 1.47234 v 1.10672 z"
             style="font-style:normal;font-variant:normal;font-weight:bold;font-stretch:normal;font-size:10.11862469px;font-family:Bahnschrift;-inkscape-font-specification:'Bahnschrift, Bold';font-variant-ligatures:normal;font-variant-caps:normal;font-variant-numeric:normal;font-feature-settings:normal;text-align:start;writing-mode:lr-tb;text-anchor:start;fill:#4d4d4d;fill-opacity:1;stroke-width:0.25297791"
             id="path838"
             inkscape:connector-curvature="0" />
          <path
             d="m 394.18177,390.93874 q -0.67194,0 -0.98814,-0.34092 -0.31127,-0.34585 -0.31127,-1.01779 v -5.28658 h 1.35376 v 4.95061 q 0,0.18775 0.0741,0.29151 0.0741,0.0988 0.2174,0.0988 h 0.33597 v 1.30436 z m -1.82807,-5.15319 h 2.5099 v 1.15613 h -2.5099 z"
             style="font-style:normal;font-variant:normal;font-weight:bold;font-stretch:normal;font-size:10.11862469px;font-family:Bahnschrift;-inkscape-font-specification:'Bahnschrift, Bold';font-variant-ligatures:normal;font-variant-caps:normal;font-variant-numeric:normal;font-feature-settings:normal;text-align:start;writing-mode:lr-tb;text-anchor:start;fill:#4d4d4d;fill-opacity:1;stroke-width:0.25297791"
             id="path840"
             inkscape:connector-curvature="0" />
          <path
             d="m 396.04937,383.7302 h 1.35376 v 7.18383 h -1.35376 z m 2.96444,4.07611 q 0,-0.3755 -0.21739,-0.58301 -0.21245,-0.20751 -0.60771,-0.20751 -0.3755,0 -0.58301,0.21245 -0.20257,0.20751 -0.20257,0.58795 l -0.10375,-1.13637 q 0.23221,-0.48419 0.55336,-0.72629 0.32609,-0.24209 0.81522,-0.24209 0.81028,0 1.25495,0.54842 0.44466,0.54348 0.44466,1.54151 v 3.11266 h -1.35376 z"
             style="font-style:normal;font-variant:normal;font-weight:bold;font-stretch:normal;font-size:10.11862469px;font-family:Bahnschrift;-inkscape-font-specification:'Bahnschrift, Bold';font-variant-ligatures:normal;font-variant-caps:normal;font-variant-numeric:normal;font-feature-settings:normal;text-align:start;writing-mode:lr-tb;text-anchor:start;fill:#4d4d4d;fill-opacity:1;stroke-width:0.25297791"
             id="path842"
             inkscape:connector-curvature="0" />
          <path
             d="m 403.9002,390.98814 q -0.74111,0 -1.26977,-0.2668 -0.52371,-0.27174 -0.8004,-0.78557 -0.27668,-0.51878 -0.27668,-1.24507 v -0.57806 q 0,-0.76088 0.26186,-1.29942 0.2668,-0.53854 0.77076,-0.82016 0.50889,-0.28162 1.2253,-0.28162 0.67194,0 1.15119,0.33597 0.47925,0.33597 0.72629,0.97826 0.25198,0.63736 0.25198,1.54151 v 0.33597 h -3.50793 v -0.91403 h 2.27274 l -0.0148,-0.11858 q -0.0543,-0.44467 -0.28162,-0.68676 -0.22234,-0.2421 -0.59783,-0.2421 -0.48913,0 -0.76087,0.2915 -0.2668,0.29151 -0.2668,0.82511 v 0.65217 q 0,0.52372 0.2915,0.81028 0.29644,0.28657 0.8251,0.28657 0.27174,0 0.53854,-0.0939 0.2668,-0.0988 0.48419,-0.27668 v 0 l 0.8844,0.78558 v 0 q -0.4002,0.36561 -0.89922,0.56818 -0.49901,0.19763 -1.00791,0.19763 z"
             style="font-style:normal;font-variant:normal;font-weight:bold;font-stretch:normal;font-size:10.11862469px;font-family:Bahnschrift;-inkscape-font-specification:'Bahnschrift, Bold';font-variant-ligatures:normal;font-variant-caps:normal;font-variant-numeric:normal;font-feature-settings:normal;text-align:start;writing-mode:lr-tb;text-anchor:start;fill:#4d4d4d;fill-opacity:1;stroke-width:0.25297791"
             id="path844"
             inkscape:connector-curvature="0" />
          <path
             d="m 409.95754,387.66303 q 0,-0.35573 -0.23715,-0.54842 -0.23716,-0.19269 -0.67194,-0.19269 -0.28657,0 -0.56819,0.0939 -0.28162,0.0939 -0.49901,0.26186 l -0.83993,-0.8251 q 0.30633,-0.35079 0.81028,-0.54348 0.50396,-0.19763 1.11661,-0.19763 0.67194,0 1.14625,0.22727 0.47431,0.22234 0.72135,0.65218 0.25197,0.4249 0.25197,1.02767 v 3.29547 h -1.23024 z m -1.42787,3.32511 q -0.8251,0 -1.23518,-0.39032 -0.40514,-0.39525 -0.40514,-1.19565 0,-0.76088 0.45454,-1.14131 0.45949,-0.38044 1.37353,-0.38044 h 1.28459 l 0.0692,1.03261 h -1.34882 q -0.30633,0 -0.45949,0.12352 -0.15316,0.11858 -0.15316,0.36562 0,0.25197 0.19269,0.37549 0.19268,0.11858 0.583,0.11858 0.54348,0 0.80534,-0.12352 0.2668,-0.12352 0.2668,-0.38538 l 0.10376,0.74606 q -0.0297,0.27668 -0.25692,0.46937 -0.22233,0.19268 -0.56324,0.2915 -0.33597,0.0939 -0.71147,0.0939 z"
             style="font-style:normal;font-variant:normal;font-weight:bold;font-stretch:normal;font-size:10.11862469px;font-family:Bahnschrift;-inkscape-font-specification:'Bahnschrift, Bold';font-variant-ligatures:normal;font-variant-caps:normal;font-variant-numeric:normal;font-feature-settings:normal;text-align:start;writing-mode:lr-tb;text-anchor:start;fill:#4d4d4d;fill-opacity:1;stroke-width:0.25297791"
             id="path846"
             inkscape:connector-curvature="0" />
          <path
             d="m 414.70064,390.98814 q -0.73123,0 -1.25494,-0.27668 -0.51878,-0.28162 -0.79052,-0.81522 -0.27174,-0.5336 -0.27174,-1.28459 v -0.54842 q 0,-0.74605 0.27174,-1.26977 0.27174,-0.52866 0.79052,-0.80534 0.52371,-0.27668 1.25494,-0.27668 0.41997,0 0.79052,0.0988 0.3755,0.0939 0.67194,0.27668 0.29645,0.18281 0.49407,0.44467 v 0 l -0.87451,0.84981 v 0 q -0.18774,-0.17293 -0.43972,-0.2668 -0.25198,-0.0988 -0.52866,-0.0988 -0.51384,0 -0.79546,0.27668 -0.28162,0.27174 -0.28162,0.77076 v 0.54842 q 0,0.51384 0.28162,0.79546 0.28162,0.27668 0.79546,0.27668 0.28162,0 0.5336,-0.10376 0.25198,-0.10375 0.43478,-0.29644 v 0 l 0.87451,0.89921 v 0 q -0.20257,0.25692 -0.49901,0.43973 -0.29644,0.17787 -0.667,0.27174 -0.37055,0.0939 -0.79052,0.0939 z"
             style="font-style:normal;font-variant:normal;font-weight:bold;font-stretch:normal;font-size:10.11862469px;font-family:Bahnschrift;-inkscape-font-specification:'Bahnschrift, Bold';font-variant-ligatures:normal;font-variant-caps:normal;font-variant-numeric:normal;font-feature-settings:normal;text-align:start;writing-mode:lr-tb;text-anchor:start;fill:#4d4d4d;fill-opacity:1;stroke-width:0.25297791"
             id="path848"
             inkscape:connector-curvature="0" />
          <path
             d="m 419.00402,390.93874 q -0.67194,0 -0.98814,-0.34092 -0.31127,-0.34585 -0.31127,-1.01779 v -5.28658 h 1.35376 v 4.95061 q 0,0.18775 0.0741,0.29151 0.0741,0.0988 0.2174,0.0988 h 0.33597 v 1.30436 z m -1.82807,-5.15319 h 2.5099 v 1.15613 h -2.5099 z"
             style="font-style:normal;font-variant:normal;font-weight:bold;font-stretch:normal;font-size:10.11862469px;font-family:Bahnschrift;-inkscape-font-specification:'Bahnschrift, Bold';font-variant-ligatures:normal;font-variant-caps:normal;font-variant-numeric:normal;font-feature-settings:normal;text-align:start;writing-mode:lr-tb;text-anchor:start;fill:#4d4d4d;fill-opacity:1;stroke-width:0.25297791"
             id="path850"
             inkscape:connector-curvature="0" />
          <path
             d="m 422.93685,390.98814 q -0.70158,0 -1.20059,-0.26186 -0.49408,-0.26185 -0.75594,-0.76087 -0.25692,-0.50395 -0.25692,-1.21048 v -0.83498 q 0,-0.69665 0.25692,-1.19072 0.26186,-0.49901 0.75594,-0.75593 0.49901,-0.26186 1.20059,-0.26186 0.70159,0 1.19566,0.26186 0.49902,0.25692 0.75593,0.75593 0.26186,0.49407 0.26186,1.19072 v 0.8498 q 0,0.70159 -0.26186,1.2006 -0.25691,0.49408 -0.75593,0.75593 -0.49407,0.26186 -1.19566,0.26186 z m -0.005,-1.30435 q 0.41008,0 0.63736,-0.23716 0.22727,-0.24209 0.22727,-0.67688 v -0.8498 q 0,-0.42985 -0.22727,-0.667 -0.22728,-0.23716 -0.63736,-0.23716 -0.40514,0 -0.63241,0.23716 -0.22233,0.23715 -0.22233,0.667 v 0.8498 q 0,0.43479 0.22233,0.67688 0.22233,0.23716 0.63241,0.23716 z"
             style="font-style:normal;font-variant:normal;font-weight:bold;font-stretch:normal;font-size:10.11862469px;font-family:Bahnschrift;-inkscape-font-specification:'Bahnschrift, Bold';font-variant-ligatures:normal;font-variant-caps:normal;font-variant-numeric:normal;font-feature-settings:normal;text-align:start;writing-mode:lr-tb;text-anchor:start;fill:#4d4d4d;fill-opacity:1;stroke-width:0.25297791"
             id="path852"
             inkscape:connector-curvature="0" />
          <path
             d="m 426.38548,385.78555 h 1.45258 v 5.12848 h -1.45258 z m 2.88539,1.42787 q -0.0988,-0.0988 -0.2421,-0.14822 -0.14328,-0.0494 -0.33102,-0.0494 -0.41009,0 -0.63736,0.2668 -0.22233,0.26186 -0.22233,0.73123 l -0.10376,-1.334 q 0.21245,-0.45949 0.54842,-0.71146 0.34091,-0.25692 0.74605,-0.25692 0.32115,0 0.57807,0.10375 0.26186,0.0988 0.45455,0.29645 z"
             style="font-style:normal;font-variant:normal;font-weight:bold;font-stretch:normal;font-size:10.11862469px;font-family:Bahnschrift;-inkscape-font-specification:'Bahnschrift, Bold';font-variant-ligatures:normal;font-variant-caps:normal;font-variant-numeric:normal;font-feature-settings:normal;text-align:start;writing-mode:lr-tb;text-anchor:start;fill:#4d4d4d;fill-opacity:1;stroke-width:0.25297791"
             id="path854"
             inkscape:connector-curvature="0" />
          <path
             d="m 432.67504,390.98814 q -0.45949,0 -0.89427,-0.079 -0.43479,-0.084 -0.81522,-0.24209 -0.38044,-0.15811 -0.67194,-0.38044 v 0 l 0.83498,-1.0425 v 0 q 0.37056,0.23716 0.7757,0.36562 0.40514,0.12846 0.77075,0.12846 0.47431,0 0.73617,-0.10376 0.26186,-0.10869 0.26186,-0.29644 0,-0.17293 -0.11364,-0.26186 -0.11364,-0.0889 -0.2915,-0.12352 -0.17787,-0.0395 -0.49902,-0.0692 -0.0889,-0.01 -0.1828,-0.0198 -0.0889,-0.01 -0.18281,-0.0198 -0.0198,-0.005 -0.0445,-0.005 -0.0198,-0.005 -0.0395,-0.005 -0.57313,-0.0741 -0.91898,-0.1828 -0.34585,-0.1087 -0.58795,-0.41503 -0.23715,-0.31126 -0.23715,-0.89921 0,-0.51384 0.24703,-0.87945 0.24704,-0.36562 0.71641,-0.55336 0.46937,-0.19269 1.13637,-0.19269 0.39032,0 0.7757,0.079 0.39031,0.079 0.74605,0.22727 0.35573,0.14823 0.65711,0.35574 v 0 l -0.80534,0.9832 v 0 q -0.33597,-0.18774 -0.70158,-0.2915 -0.36561,-0.10376 -0.70158,-0.10376 -0.41009,0 -0.63736,0.0939 -0.22727,0.0939 -0.22727,0.26186 0,0.12846 0.11858,0.20257 0.12351,0.0692 0.30138,0.10375 0.18281,0.0297 0.52866,0.0692 0.0445,0.005 0.0889,0.01 0.0445,0.005 0.0889,0.01 0.0198,0.005 0.0445,0.005 0.0247,0 0.0445,0.005 0.59783,0.0692 0.97332,0.17786 0.3755,0.1087 0.63736,0.43479 0.2668,0.32609 0.2668,0.9585 0,0.5336 -0.25692,0.91404 -0.25692,0.38043 -0.75099,0.583 -0.49408,0.19763 -1.19072,0.19763 z"
             style="font-style:normal;font-variant:normal;font-weight:bold;font-stretch:normal;font-size:10.11862469px;font-family:Bahnschrift;-inkscape-font-specification:'Bahnschrift, Bold';font-variant-ligatures:normal;font-variant-caps:normal;font-variant-numeric:normal;font-feature-settings:normal;text-align:start;writing-mode:lr-tb;text-anchor:start;fill:#4d4d4d;fill-opacity:1;stroke-width:0.25297791"
             id="path856"
             inkscape:connector-curvature="0" />
          <path
             d="m 437.32427,389.21936 q 0,0.18775 0.10376,0.2915 0.10869,0.0988 0.30632,0.0988 h 0.22728 v 1.30435 h -0.69171 q -0.61759,0 -0.9585,-0.35573 -0.34091,-0.35573 -0.34091,-1.00297 v -5.82513 h 1.35376 z"
             style="font-style:normal;font-variant:normal;font-weight:bold;font-stretch:normal;font-size:10.11862469px;font-family:Bahnschrift;-inkscape-font-specification:'Bahnschrift, Bold';font-variant-ligatures:normal;font-variant-caps:normal;font-variant-numeric:normal;font-feature-settings:normal;text-align:start;writing-mode:lr-tb;text-anchor:start;fill:#4d4d4d;fill-opacity:1;stroke-width:0.25297791"
             id="path858"
             inkscape:connector-curvature="0" />
          <path
             d="m 441.67705,387.66303 q 0,-0.35573 -0.23715,-0.54842 -0.23716,-0.19269 -0.67194,-0.19269 -0.28656,0 -0.56819,0.0939 -0.28162,0.0939 -0.49901,0.26186 l -0.83992,-0.8251 q 0.30632,-0.35079 0.81028,-0.54348 0.50395,-0.19763 1.1166,-0.19763 0.67194,0 1.14625,0.22727 0.47431,0.22234 0.72135,0.65218 0.25198,0.4249 0.25198,1.02767 v 3.29547 h -1.23025 z m -1.42787,3.32511 q -0.8251,0 -1.23518,-0.39032 -0.40514,-0.39525 -0.40514,-1.19565 0,-0.76088 0.45455,-1.14131 0.45948,-0.38044 1.37352,-0.38044 h 1.28459 l 0.0692,1.03261 h -1.34882 q -0.30632,0 -0.45949,0.12352 -0.15316,0.11858 -0.15316,0.36562 0,0.25197 0.19269,0.37549 0.19269,0.11858 0.58301,0.11858 0.54348,0 0.80533,-0.12352 0.2668,-0.12352 0.2668,-0.38538 l 0.10376,0.74606 q -0.0296,0.27668 -0.25692,0.46937 -0.22233,0.19268 -0.56324,0.2915 -0.33597,0.0939 -0.71147,0.0939 z"
             style="font-style:normal;font-variant:normal;font-weight:bold;font-stretch:normal;font-size:10.11862469px;font-family:Bahnschrift;-inkscape-font-specification:'Bahnschrift, Bold';font-variant-ligatures:normal;font-variant-caps:normal;font-variant-numeric:normal;font-feature-settings:normal;text-align:start;writing-mode:lr-tb;text-anchor:start;fill:#4d4d4d;fill-opacity:1;stroke-width:0.25297791"
             id="path860"
             inkscape:connector-curvature="0" />
          <path
             d="m 447.19586,385.78555 h 1.34882 v 5.12848 h -1.34882 z m -1.59092,3.1176 q 0,0.37056 0.20751,0.57807 0.21246,0.20257 0.59289,0.20257 0.38044,0 0.58301,-0.20751 0.20751,-0.21245 0.20751,-0.60277 l 0.0692,1.12155 q -0.14328,0.41996 -0.47925,0.70652 -0.33103,0.28656 -0.81028,0.28656 -0.8251,0 -1.27471,-0.52866 -0.44961,-0.53359 -0.44961,-1.50692 v -3.16701 h 1.35376 z"
             style="font-style:normal;font-variant:normal;font-weight:bold;font-stretch:normal;font-size:10.11862469px;font-family:Bahnschrift;-inkscape-font-specification:'Bahnschrift, Bold';font-variant-ligatures:normal;font-variant-caps:normal;font-variant-numeric:normal;font-feature-settings:normal;text-align:start;writing-mode:lr-tb;text-anchor:start;fill:#4d4d4d;fill-opacity:1;stroke-width:0.25297791"
             id="path862"
             inkscape:connector-curvature="0" />
          <path
             d="m 449.88362,385.78555 h 1.35376 v 5.12848 h -1.35376 z m 2.96444,2.02076 q 0,-0.3755 -0.21739,-0.58301 -0.21245,-0.20751 -0.60771,-0.20751 -0.3755,0 -0.58301,0.21245 -0.20257,0.20751 -0.20257,0.58795 l -0.10375,-1.13637 q 0.23221,-0.48419 0.55336,-0.72629 0.32609,-0.24209 0.81522,-0.24209 0.81028,0 1.25495,0.54842 0.44466,0.54348 0.44466,1.54151 v 3.11266 h -1.35376 z"
             style="font-style:normal;font-variant:normal;font-weight:bold;font-stretch:normal;font-size:10.11862469px;font-family:Bahnschrift;-inkscape-font-specification:'Bahnschrift, Bold';font-variant-ligatures:normal;font-variant-caps:normal;font-variant-numeric:normal;font-feature-settings:normal;text-align:start;writing-mode:lr-tb;text-anchor:start;fill:#4d4d4d;fill-opacity:1;stroke-width:0.25297791"
             id="path864"
             inkscape:connector-curvature="0" />
          <path
             d="m 457.7048,390.98814 q -0.73123,0 -1.25495,-0.27668 -0.51877,-0.28162 -0.79051,-0.81522 -0.27174,-0.5336 -0.27174,-1.28459 v -0.54842 q 0,-0.74605 0.27174,-1.26977 0.27174,-0.52866 0.79051,-0.80534 0.52372,-0.27668 1.25495,-0.27668 0.41996,0 0.79052,0.0988 0.3755,0.0939 0.67194,0.27668 0.29644,0.18281 0.49407,0.44467 v 0 l -0.87451,0.84981 v 0 q -0.18775,-0.17293 -0.43972,-0.2668 -0.25198,-0.0988 -0.52866,-0.0988 -0.51384,0 -0.79546,0.27668 -0.28162,0.27174 -0.28162,0.77076 v 0.54842 q 0,0.51384 0.28162,0.79546 0.28162,0.27668 0.79546,0.27668 0.28162,0 0.5336,-0.10376 0.25198,-0.10375 0.43478,-0.29644 v 0 l 0.87451,0.89921 v 0 q -0.20257,0.25692 -0.49901,0.43973 -0.29645,0.17787 -0.667,0.27174 -0.37056,0.0939 -0.79052,0.0939 z"
             style="font-style:normal;font-variant:normal;font-weight:bold;font-stretch:normal;font-size:10.11862469px;font-family:Bahnschrift;-inkscape-font-specification:'Bahnschrift, Bold';font-variant-ligatures:normal;font-variant-caps:normal;font-variant-numeric:normal;font-feature-settings:normal;text-align:start;writing-mode:lr-tb;text-anchor:start;fill:#4d4d4d;fill-opacity:1;stroke-width:0.25297791"
             id="path866"
             inkscape:connector-curvature="0" />
          <path
             d="m 460.57537,383.7302 h 1.35376 v 7.18383 h -1.35376 z m 2.96444,4.07611 q 0,-0.3755 -0.21739,-0.58301 -0.21245,-0.20751 -0.60771,-0.20751 -0.3755,0 -0.58301,0.21245 -0.20257,0.20751 -0.20257,0.58795 l -0.10375,-1.13637 q 0.23221,-0.48419 0.55336,-0.72629 0.32609,-0.24209 0.81522,-0.24209 0.81028,0 1.25495,0.54842 0.44466,0.54348 0.44466,1.54151 v 3.11266 h -1.35376 z"
             style="font-style:normal;font-variant:normal;font-weight:bold;font-stretch:normal;font-size:10.11862469px;font-family:Bahnschrift;-inkscape-font-specification:'Bahnschrift, Bold';font-variant-ligatures:normal;font-variant-caps:normal;font-variant-numeric:normal;font-feature-settings:normal;text-align:start;writing-mode:lr-tb;text-anchor:start;fill:#4d4d4d;fill-opacity:1;stroke-width:0.25297791"
             id="path868"
             inkscape:connector-curvature="0" />
          <path
             d="m 466.15346,383.7302 h 1.35376 v 1.35377 h -1.35376 z m 0,2.05535 h 1.35376 v 5.12848 h -1.35376 z"
             style="font-style:normal;font-variant:normal;font-weight:bold;font-stretch:normal;font-size:10.11862469px;font-family:Bahnschrift;-inkscape-font-specification:'Bahnschrift, Bold';font-variant-ligatures:normal;font-variant-caps:normal;font-variant-numeric:normal;font-feature-settings:normal;text-align:start;writing-mode:lr-tb;text-anchor:start;fill:#4d4d4d;fill-opacity:1;stroke-width:0.25297791"
             id="path870"
             inkscape:connector-curvature="0" />
          <path
             d="m 468.77699,385.78555 h 1.35376 v 5.12848 h -1.35376 z m 2.96444,2.02076 q 0,-0.3755 -0.21739,-0.58301 -0.21245,-0.20751 -0.60771,-0.20751 -0.3755,0 -0.58301,0.21245 -0.20257,0.20751 -0.20257,0.58795 l -0.10375,-1.13637 q 0.23221,-0.48419 0.55336,-0.72629 0.32609,-0.24209 0.81522,-0.24209 0.81028,0 1.25495,0.54842 0.44466,0.54348 0.44466,1.54151 v 3.11266 h -1.35376 z"
             style="font-style:normal;font-variant:normal;font-weight:bold;font-stretch:normal;font-size:10.11862469px;font-family:Bahnschrift;-inkscape-font-specification:'Bahnschrift, Bold';font-variant-ligatures:normal;font-variant-caps:normal;font-variant-numeric:normal;font-feature-settings:normal;text-align:start;writing-mode:lr-tb;text-anchor:start;fill:#4d4d4d;fill-opacity:1;stroke-width:0.25297791"
             id="path872"
             inkscape:connector-curvature="0" />
          <path
             d="m 476.24738,392.99902 q -0.61265,0 -1.09684,-0.21739 -0.47925,-0.21245 -0.74605,-0.60277 v 0 l 0.90909,-0.83498 v 0 q 0.17293,0.18774 0.41502,0.28656 0.2421,0.10375 0.50396,0.10375 0.4249,0 0.6917,-0.23221 0.27174,-0.23222 0.27174,-0.6423 v -5.07413 h 1.35376 v 4.97532 q 0,0.70652 -0.27174,1.21048 -0.2668,0.50395 -0.78557,0.76581 -0.51384,0.26186 -1.24507,0.26186 z m -0.24209,-2.01088 q -0.54349,0 -0.9338,-0.26186 -0.38538,-0.26185 -0.58795,-0.75593 -0.20257,-0.49901 -0.20257,-1.2006 v -0.82016 q 0,-0.70652 0.20257,-1.21048 0.20257,-0.50395 0.58795,-0.76581 0.39031,-0.26186 0.9338,-0.26186 0.41008,0 0.74605,0.24704 0.34091,0.24209 0.54842,0.6917 l -0.10376,1.13637 q 0,-0.26186 -0.0889,-0.44467 -0.0889,-0.18281 -0.26186,-0.27668 -0.16799,-0.0988 -0.41008,-0.0988 -0.38044,0 -0.59289,0.26186 -0.20751,0.25692 -0.20751,0.72629 v 0.81522 q 0,0.45949 0.20751,0.71147 0.21245,0.25198 0.59289,0.25198 0.24209,0 0.41008,-0.0939 0.17293,-0.0939 0.26186,-0.27174 0.0889,-0.17786 0.0889,-0.42984 l 0.0692,1.17095 q -0.1581,0.41996 -0.48419,0.65218 -0.32609,0.22727 -0.77569,0.22727 z"
             style="font-style:normal;font-variant:normal;font-weight:bold;font-stretch:normal;font-size:10.11862469px;font-family:Bahnschrift;-inkscape-font-specification:'Bahnschrift, Bold';font-variant-ligatures:normal;font-variant-caps:normal;font-variant-numeric:normal;font-feature-settings:normal;text-align:start;writing-mode:lr-tb;text-anchor:start;fill:#4d4d4d;fill-opacity:1;stroke-width:0.25297791"
             id="path874"
             inkscape:connector-curvature="0" />
          <path
             d="m 479.88377,385.78555 h 1.35376 v 7.21347 h -1.35376 z m 2.54447,5.20259 q -0.4496,0 -0.77569,-0.22727 -0.32609,-0.23222 -0.48419,-0.65218 l 0.0692,-1.17095 q 0,0.25198 0.0889,0.42984 0.0889,0.17787 0.25692,0.27174 0.17292,0.0939 0.41502,0.0939 0.38044,0 0.58795,-0.25198 0.21245,-0.25198 0.21245,-0.71147 v -0.81522 q 0,-0.46937 -0.21245,-0.72629 -0.20751,-0.26186 -0.58795,-0.26186 -0.2421,0 -0.41502,0.0988 -0.16799,0.0939 -0.25692,0.27668 -0.0889,0.18281 -0.0889,0.44467 l -0.10376,-1.13637 q 0.20751,-0.44961 0.54348,-0.6917 0.34091,-0.24704 0.75099,-0.24704 0.54348,0 0.92886,0.26186 0.39032,0.26186 0.59289,0.76581 0.20257,0.50396 0.20257,1.21048 v 0.82016 q 0,0.70159 -0.20257,1.2006 -0.20257,0.49408 -0.59289,0.75593 -0.38538,0.26186 -0.92886,0.26186 z"
             style="font-style:normal;font-variant:normal;font-weight:bold;font-stretch:normal;font-size:10.11862469px;font-family:Bahnschrift;-inkscape-font-specification:'Bahnschrift, Bold';font-variant-ligatures:normal;font-variant-caps:normal;font-variant-numeric:normal;font-feature-settings:normal;text-align:start;writing-mode:lr-tb;text-anchor:start;fill:#4d4d4d;fill-opacity:1;stroke-width:0.25297791"
             id="path876"
             inkscape:connector-curvature="0" />
          <path
             d="m 488.21878,387.66303 q 0,-0.35573 -0.23716,-0.54842 -0.23715,-0.19269 -0.67194,-0.19269 -0.28656,0 -0.56818,0.0939 -0.28162,0.0939 -0.49901,0.26186 l -0.83993,-0.8251 q 0.30633,-0.35079 0.81028,-0.54348 0.50396,-0.19763 1.11661,-0.19763 0.67194,0 1.14625,0.22727 0.47431,0.22234 0.72135,0.65218 0.25197,0.4249 0.25197,1.02767 v 3.29547 h -1.23024 z m -1.42787,3.32511 q -0.82511,0 -1.23519,-0.39032 -0.40514,-0.39525 -0.40514,-1.19565 0,-0.76088 0.45455,-1.14131 0.45949,-0.38044 1.37353,-0.38044 h 1.28459 l 0.0692,1.03261 h -1.34882 q -0.30633,0 -0.45949,0.12352 -0.15317,0.11858 -0.15317,0.36562 0,0.25197 0.19269,0.37549 0.19269,0.11858 0.58301,0.11858 0.54348,0 0.80534,-0.12352 0.2668,-0.12352 0.2668,-0.38538 l 0.10376,0.74606 q -0.0297,0.27668 -0.25692,0.46937 -0.22234,0.19268 -0.56325,0.2915 -0.33597,0.0939 -0.71146,0.0939 z"
             style="font-style:normal;font-variant:normal;font-weight:bold;font-stretch:normal;font-size:10.11862469px;font-family:Bahnschrift;-inkscape-font-specification:'Bahnschrift, Bold';font-variant-ligatures:normal;font-variant-caps:normal;font-variant-numeric:normal;font-feature-settings:normal;text-align:start;writing-mode:lr-tb;text-anchor:start;fill:#4d4d4d;fill-opacity:1;stroke-width:0.25297791"
             id="path878"
             inkscape:connector-curvature="0" />
          <path
             d="m 493.55971,383.7302 h 1.35376 v 7.18383 h -1.35376 z m -1.19072,7.25794 q -0.54348,0 -0.9338,-0.26186 -0.38537,-0.26185 -0.58794,-0.75593 -0.20257,-0.49901 -0.20257,-1.2006 v -0.82016 q 0,-0.70652 0.20257,-1.21048 0.20257,-0.50395 0.58794,-0.76581 0.39032,-0.26186 0.9338,-0.26186 0.41008,0 0.74605,0.24704 0.34092,0.24209 0.54843,0.6917 l -0.10376,1.13637 q 0,-0.26186 -0.0889,-0.44467 -0.0889,-0.18281 -0.26186,-0.27668 -0.16799,-0.0988 -0.41008,-0.0988 -0.38044,0 -0.59289,0.26186 -0.20751,0.25692 -0.20751,0.72629 v 0.81522 q 0,0.45949 0.20751,0.71147 0.21245,0.25198 0.59289,0.25198 0.24209,0 0.41008,-0.0939 0.17292,-0.0939 0.26186,-0.27174 0.0889,-0.17786 0.0889,-0.42984 l 0.0692,1.17095 q -0.1581,0.41996 -0.48419,0.65218 -0.32609,0.22727 -0.7757,0.22727 z"
             style="font-style:normal;font-variant:normal;font-weight:bold;font-stretch:normal;font-size:10.11862469px;font-family:Bahnschrift;-inkscape-font-specification:'Bahnschrift, Bold';font-variant-ligatures:normal;font-variant-caps:normal;font-variant-numeric:normal;font-feature-settings:normal;text-align:start;writing-mode:lr-tb;text-anchor:start;fill:#4d4d4d;fill-opacity:1;stroke-width:0.25297791"
             id="path880"
             inkscape:connector-curvature="0" />
          <path
             d="m 496.02514,389.56027 h 1.35376 v 1.35376 h -1.35376 z"
             style="font-style:normal;font-variant:normal;font-weight:bold;font-stretch:normal;font-size:10.11862469px;font-family:Bahnschrift;-inkscape-font-specification:'Bahnschrift, Bold';font-variant-ligatures:normal;font-variant-caps:normal;font-variant-numeric:normal;font-feature-settings:normal;text-align:start;writing-mode:lr-tb;text-anchor:start;fill:#4d4d4d;fill-opacity:1;stroke-width:0.25297791"
             id="path882"
             inkscape:connector-curvature="0" />
          <path
             d="m 500.51132,390.98814 q -0.73123,0 -1.25495,-0.27668 -0.51877,-0.28162 -0.79051,-0.81522 -0.27174,-0.5336 -0.27174,-1.28459 v -0.54842 q 0,-0.74605 0.27174,-1.26977 0.27174,-0.52866 0.79051,-0.80534 0.52372,-0.27668 1.25495,-0.27668 0.41996,0 0.79052,0.0988 0.37549,0.0939 0.67194,0.27668 0.29644,0.18281 0.49407,0.44467 v 0 l -0.87451,0.84981 v 0 q -0.18775,-0.17293 -0.43972,-0.2668 -0.25198,-0.0988 -0.52866,-0.0988 -0.51384,0 -0.79546,0.27668 -0.28162,0.27174 -0.28162,0.77076 v 0.54842 q 0,0.51384 0.28162,0.79546 0.28162,0.27668 0.79546,0.27668 0.28162,0 0.5336,-0.10376 0.25197,-0.10375 0.43478,-0.29644 v 0 l 0.87451,0.89921 v 0 q -0.20257,0.25692 -0.49901,0.43973 -0.29645,0.17787 -0.667,0.27174 -0.37056,0.0939 -0.79052,0.0939 z"
             style="font-style:normal;font-variant:normal;font-weight:bold;font-stretch:normal;font-size:10.11862469px;font-family:Bahnschrift;-inkscape-font-specification:'Bahnschrift, Bold';font-variant-ligatures:normal;font-variant-caps:normal;font-variant-numeric:normal;font-feature-settings:normal;text-align:start;writing-mode:lr-tb;text-anchor:start;fill:#4d4d4d;fill-opacity:1;stroke-width:0.25297791"
             id="path884"
             inkscape:connector-curvature="0" />
          <path
             d="m 505.44712,390.98814 q -0.70159,0 -1.2006,-0.26186 -0.49408,-0.26185 -0.75594,-0.76087 -0.25691,-0.50395 -0.25691,-1.21048 v -0.83498 q 0,-0.69665 0.25691,-1.19072 0.26186,-0.49901 0.75594,-0.75593 0.49901,-0.26186 1.2006,-0.26186 0.70158,0 1.19565,0.26186 0.49902,0.25692 0.75594,0.75593 0.26185,0.49407 0.26185,1.19072 v 0.8498 q 0,0.70159 -0.26185,1.2006 -0.25692,0.49408 -0.75594,0.75593 -0.49407,0.26186 -1.19565,0.26186 z m -0.005,-1.30435 q 0.41009,0 0.63736,-0.23716 0.22727,-0.24209 0.22727,-0.67688 v -0.8498 q 0,-0.42985 -0.22727,-0.667 -0.22727,-0.23716 -0.63736,-0.23716 -0.40514,0 -0.63241,0.23716 -0.22233,0.23715 -0.22233,0.667 v 0.8498 q 0,0.43479 0.22233,0.67688 0.22233,0.23716 0.63241,0.23716 z"
             style="font-style:normal;font-variant:normal;font-weight:bold;font-stretch:normal;font-size:10.11862469px;font-family:Bahnschrift;-inkscape-font-specification:'Bahnschrift, Bold';font-variant-ligatures:normal;font-variant-caps:normal;font-variant-numeric:normal;font-feature-settings:normal;text-align:start;writing-mode:lr-tb;text-anchor:start;fill:#4d4d4d;fill-opacity:1;stroke-width:0.25297791"
             id="path886"
             inkscape:connector-curvature="0" />
          <path
             d="m 514.87405,387.95453 q 0,-0.4496 -0.21739,-0.6917 -0.21246,-0.24704 -0.60772,-0.24704 -0.39031,0 -0.60276,0.23716 -0.20752,0.23221 -0.20752,0.66206 l -0.25197,-1.18578 q 0.24209,-0.48913 0.62747,-0.75099 0.39032,-0.2668 0.86463,-0.2668 0.55336,0 0.94368,0.26186 0.39526,0.26186 0.59783,0.76581 0.20751,0.50396 0.20751,1.21048 v 2.96444 h -1.35376 z m -5.97829,-2.16898 h 1.35376 v 5.12848 h -1.35376 z m 2.98914,2.16898 q 0,-0.4496 -0.22233,-0.6917 -0.22233,-0.24704 -0.62747,-0.24704 -0.3755,0 -0.58301,0.21245 -0.20257,0.20751 -0.20257,0.58795 l -0.10376,-1.13637 q 0.22728,-0.47431 0.56819,-0.72134 0.34091,-0.24704 0.8004,-0.24704 0.54348,0 0.92886,0.26186 0.39031,0.26186 0.59288,0.76581 0.20257,0.50396 0.20257,1.21048 v 2.96444 h -1.35376 z"
             style="font-style:normal;font-variant:normal;font-weight:bold;font-stretch:normal;font-size:10.11862469px;font-family:Bahnschrift;-inkscape-font-specification:'Bahnschrift, Bold';font-variant-ligatures:normal;font-variant-caps:normal;font-variant-numeric:normal;font-feature-settings:normal;text-align:start;writing-mode:lr-tb;text-anchor:start;fill:#4d4d4d;fill-opacity:1;stroke-width:0.25297791"
             id="path888"
             inkscape:connector-curvature="0" />
        </g>
      </g>
    </g>
  </g>
</svg>
