<?xml version="1.0" encoding="UTF-8" standalone="no"?>
<!-- Created with Inkscape (http://www.inkscape.org/) -->
<svg id="svg60500" xmlns:rdf="http://www.w3.org/1999/02/22-rdf-syntax-ns#" xmlns="http://www.w3.org/2000/svg" height="98.853mm" width="90.951mm" version="1.1" xmlns:cc="http://creativecommons.org/ns#" xmlns:dc="http://purl.org/dc/elements/1.1/" viewBox="0 0 322.26616 350.2653">
 <g id="layer1" transform="translate(-156.01 -137.23)">
  <g id="g51058" transform="translate(-92.457 -3283.5)">
   <path id="path51060" opacity=".1" d="m506.1 3570v-5.7h-6v5.7h-20.8v-25.3c0-3.6-2.9-6.5-6.5-6.5h-1.2v-56.3h-152.5v56.3h-1.2c-3.6 0-6.5 2.9-6.5 6.5v25.3h-20.9v-5.7h-6v5.7c-1.7 0-3.1 4.3-3.1 9.6s1.4 9.6 3.1 9.6v5.7h6v-5.7h8.5v0.2 2.1 67.3c0 1.1 0.3 2.2 0.7 3.1l2.9 12.9c0.1 0.4 0.2 0.9 0.3 1.4l5.6 49.1c4.7 15.4 15.1 12.6 23.4 12.6h126.5s18.2 2 23.4-12.6l5.9-47.1c0.2-0.8 0.4-1.6 0.4-2.3l2.9-14.2c0.4-0.9 0.6-1.9 0.6-2.9v-67.3-2.1-0.2h8.5v5.7h6v-5.7c1.7 0 3.1-4.3 3.1-9.6s-1.4-9.6-3.1-9.6z"/>
   <g id="g51062" style="">
    <g clip-rule="evenodd" fill-rule="evenodd">
     <path id="path51064" d="m318.8 3563h15.3c4 0 6 0.6 7.3 7.3 6.5 31.7 36.2 55.9 72.2 55.9 36.2 0 66.2-24.2 72.3-56.2 1-5.5 4.4-7.1 6.7-7.1h15.9c4.4 0 8 3.6 8 8v74.1c0 4.4-3.6 8-8 8h-189.7c-4.4 0-8-3.6-8-8v-74c0-4.4 3.6-8 8-8z" fill="#33b59b"/>
     <path id="path51066" d="m331 3516.4h165.4c3.8 0 7 3.1 7 7v64.6c0 3.8-3.1 7-7 7h-165.4c-3.8 0-7-3.1-7-7v-64.6c0-3.9 3.1-7 7-7z" fill="#ee4047"/>
     <path id="path51068" d="m334.6 3521.2h158.1c3.6 0 6.5 2.9 6.5 6.5v60.3c0 3.6-2.9 6.5-6.5 6.5h-158.1c-3.6 0-6.5-2.9-6.5-6.5v-60.3c0-3.6 2.9-6.5 6.5-6.5z" fill="#a03548"/>
    </g>
    <g id="Roller">
     <g clip-rule="evenodd" fill-rule="evenodd">
      <rect id="rect51070" height="20.5" width="223.8" y="3550.3" x="309.7" fill="#454545"/>
      <path id="path51086" d="m303.4 3570.8c1.9 0 3.4-4.6 3.4-10.2s-1.5-10.2-3.4-10.2-3.4 4.6-3.4 10.2 1.5 10.2 3.4 10.2z" fill="#a03548"/>
      <rect id="rect51088" height="32.6" width="6.4" y="3544.2" x="303.4" fill="#ee4047"/>
      <path id="path51090" d="m539.9 3570.8c1.9 0 3.4-4.6 3.4-10.2s-1.5-10.2-3.4-10.2-3.4 4.6-3.4 10.2 1.6 10.2 3.4 10.2z" fill="#a03548"/>
      <rect id="rect51092" height="32.6" width="6.4" y="3544.2" x="533.6" fill="#ee4047"/>
     </g>
     <g id="Paper" transform="translate(-20.833 -4)">
      <g id="g4570" transform="translate(58 60)">
       <rect id="rect51072" fill-rule="evenodd" height="131.7" width="162.7" clip-rule="evenodd" y="3456.2" x="332.3" fill="#fff"/>
       <g id="text61873" transform="matrix(.92176 0 0 .92176 70.613 130.68)">
        <g id="g4438" transform="matrix(1.1645 0 0 1.2167 -77.418 -571.31)">

        </g>
       </g>
      </g>
     </g>
     <polygon id="polygon51094" points="347.9 3561.7 347.9 3567.1 350.2 3567.1 350.2 3561.7 477.1 3561.7 477.1 3567.1 479.4 3567.1 479.4 3561.7 525.6 3561.7 525.6 3559.4 479.4 3559.4 479.4 3554 477.1 3554 477.1 3559.4 350.2 3559.4 350.2 3554 347.9 3554 347.9 3559.4 301.7 3559.4 301.7 3561.7" fill="#6d6e71" transform="translate(8)"/>
    </g>
    <g clip-rule="evenodd" fill-rule="evenodd">
     <polygon id="polygon51074" points="413.6 3693.3 314.9 3663.8 310.8 3645.1 310.8 3570.8 516.5 3570.8 516.5 3645.1 512.7 3663.4" fill="#a03548"/>
     <path id="path51076" d="m396.9 3570.8h31.7l46.3 16.5c-10.1 20-33.7 34.1-61.2 34.1-28.4 0-52.6-15-62.2-36.1l45.4-14.5z" fill="#a6b3b0"/>
     <path id="path51078" d="m512.3 3665.9-6.3 50.3c-5.6 15.5-25 13.4-25 13.4h-135.1c-8.8 0-20 3-25-13.4l-6-52.4c-1.3-4.2 0.6-6.8 6.1-6.8h186.1c4.6 0 6.7 3.8 5.2 8.9z" fill="#ee4047"/>
     <path id="path51080" d="m495.4 3670.5-5.2 41.7c-4.6 12.9-20.8 11.1-20.8 11.1h-112c-7.3 0-16.6 2.5-20.8-11.1l-4.9-43.5c-1.1-3.5 0.5-5.6 5-5.6h154.3c4 0 5.7 3.1 4.4 7.4z" fill="#a03548"/>
     <path id="path51082" d="m318.8 3565.2h15.3c4 0 6 0.6 7.3 7.3 6.5 31.7 36.2 53.7 72.2 53.7 36.2 0 66.2-22 72.3-53.9 1-5.5 4.4-7.1 6.7-7.1h15.9c4.4 0 8 3.6 8 8v71.9c0 4.4-3.6 8-8 8h-189.7c-4.4 0-8-3.6-8-8v-71.9c0-4.4 3.6-8 8-8z" fill="#ee4047"/>
     <path id="path51084" d="m334.4 3565.2c3.8 0 5.7 0.8 7 7.3 6.5 31.7 36.2 53.7 72.2 53.7 36.2 0 66.2-22 72.3-53.9 1-5.5 4.4-7.1 6.7-7.1h0.2c-2.5 38.9-37 67.5-79.2 67.5s-76.7-28.5-79.2-67.5z" fill="#cc3b46"/>
    </g>
    <g id="g51096" fill-rule="evenodd" clip-rule="evenodd" fill="#fff">
     <path id="path51098" d="m350.1 3677h5.2c0.9 0 1.7 0.8 1.7 1.7v4.3c0 0.9-0.8 1.7-1.7 1.7h-5.2c-0.9 0-1.7-0.8-1.7-1.7v-4.3c0-0.9 0.8-1.7 1.7-1.7z"/>
     <path id="path51100" d="m344.5 3687h5.2c0.9 0 1.7 0.8 1.7 1.7v4.3c0 0.9-0.8 1.7-1.7 1.7h-5.2c-0.9 0-1.7-0.8-1.7-1.7v-4.3c0-0.9 0.8-1.7 1.7-1.7z"/>
     <path id="path51102" d="m350.1 3697.1h5.2c0.9 0 1.7 0.8 1.7 1.7v4.3c0 0.9-0.8 1.7-1.7 1.7h-5.2c-0.9 0-1.7-0.8-1.7-1.7v-4.3c0-1 0.8-1.7 1.7-1.7z"/>
     <path id="keyQ" d="m361.2 3677h5.2c0.9 0 1.7 0.8 1.7 1.7v4.3c0 0.9-0.8 1.7-1.7 1.7h-5.2c-0.9 0-1.7-0.8-1.7-1.7v-4.3c0-0.9 0.8-1.7 1.7-1.7z"/>
     <path id="g4545" d="m355.6 3687h5.2c0.9 0 1.7 0.8 1.7 1.7v4.3c0 0.9-0.8 1.7-1.7 1.7h-5.2c-0.9 0-1.7-0.8-1.7-1.7v-4.3c0-0.9 0.8-1.7 1.7-1.7z"/>
     <path id="path51108" d="m361.2 3697.1h5.2c0.9 0 1.7 0.8 1.7 1.7v4.3c0 0.9-0.8 1.7-1.7 1.7h-5.2c-0.9 0-1.7-0.8-1.7-1.7v-4.3c0-1 0.8-1.7 1.7-1.7z"/>
     <path id="path51110" d="m355.6 3707.1h5.2c0.9 0 1.7 0.8 1.7 1.7v4.3c0 0.9-0.8 1.7-1.7 1.7h-5.2c-0.9 0-1.7-0.8-1.7-1.7v-4.3c0-1 0.8-1.7 1.7-1.7z"/>
     <path id="keyW" d="m372.3 3677h5.2c0.9 0 1.7 0.8 1.7 1.7v4.3c0 0.9-0.8 1.7-1.7 1.7h-5.2c-0.9 0-1.7-0.8-1.7-1.7v-4.3c0-0.9 0.8-1.7 1.7-1.7z"/>
     <path id="keyA" d="m366.7 3687h5.2c0.9 0 1.7 0.8 1.7 1.7v4.3c0 0.9-0.8 1.7-1.7 1.7h-5.2c-0.9 0-1.7-0.8-1.7-1.7v-4.3c0-0.9 0.8-1.7 1.7-1.7z"/>
     <path id="keyZ" d="m372.3 3697.1h5.2c0.9 0 1.7 0.8 1.7 1.7v4.3c0 0.9-0.8 1.7-1.7 1.7h-5.2c-0.9 0-1.7-0.8-1.7-1.7v-4.3c0-1 0.8-1.7 1.7-1.7z"/>
     <path id="keyE" d="m383.4 3677h5.2c0.9 0 1.7 0.8 1.7 1.7v4.3c0 0.9-0.8 1.7-1.7 1.7h-5.2c-0.9 0-1.7-0.8-1.7-1.7v-4.3c0-0.9 0.7-1.7 1.7-1.7z"/>
     <path id="keyS" d="m377.8 3687h5.2c0.9 0 1.7 0.8 1.7 1.7v4.3c0 0.9-0.8 1.7-1.7 1.7h-5.2c-0.9 0-1.7-0.8-1.7-1.7v-4.3c0-0.9 0.7-1.7 1.7-1.7z"/>
     <path id="keyX" d="m383.4 3697.1h5.2c0.9 0 1.7 0.8 1.7 1.7v4.3c0 0.9-0.8 1.7-1.7 1.7h-5.2c-0.9 0-1.7-0.8-1.7-1.7v-4.3c0-1 0.7-1.7 1.7-1.7z"/>
     <path id="keyR" d="m394.5 3677h5.2c0.9 0 1.7 0.8 1.7 1.7v4.3c0 0.9-0.8 1.7-1.7 1.7h-5.2c-0.9 0-1.7-0.8-1.7-1.7v-4.3c0-0.9 0.7-1.7 1.7-1.7z"/>
     <path id="keyD" d="m388.9 3687h5.2c0.9 0 1.7 0.8 1.7 1.7v4.3c0 0.9-0.8 1.7-1.7 1.7h-5.2c-0.9 0-1.7-0.8-1.7-1.7v-4.3c0-0.9 0.7-1.7 1.7-1.7z"/>
     <path id="keyC" d="m394.5 3697.1h5.2c0.9 0 1.7 0.8 1.7 1.7v4.3c0 0.9-0.8 1.7-1.7 1.7h-5.2c-0.9 0-1.7-0.8-1.7-1.7v-4.3c0-1 0.7-1.7 1.7-1.7z"/>
     <path id="keyT" d="m405.5 3677h5.2c0.9 0 1.7 0.8 1.7 1.7v4.3c0 0.9-0.8 1.7-1.7 1.7h-5.2c-0.9 0-1.7-0.8-1.7-1.7v-4.3c0-0.9 0.8-1.7 1.7-1.7z"/>
     <path id="keyF" d="m400 3687h5.2c0.9 0 1.7 0.8 1.7 1.7v4.3c0 0.9-0.8 1.7-1.7 1.7h-5.2c-0.9 0-1.7-0.8-1.7-1.7v-4.3c0-0.9 0.7-1.7 1.7-1.7z"/>
     <path id="keyV" d="m405.5 3697.1h5.2c0.9 0 1.7 0.8 1.7 1.7v4.3c0 0.9-0.8 1.7-1.7 1.7h-5.2c-0.9 0-1.7-0.8-1.7-1.7v-4.3c0-1 0.8-1.7 1.7-1.7z"/>
     <path id="keyY" d="m416.6 3677h5.2c0.9 0 1.7 0.8 1.7 1.7v4.3c0 0.9-0.8 1.7-1.7 1.7h-5.2c-0.9 0-1.7-0.8-1.7-1.7v-4.3c0-0.9 0.8-1.7 1.7-1.7z"/>
     <path id="keyG" d="m411 3687h5.2c0.9 0 1.7 0.8 1.7 1.7v4.3c0 0.9-0.8 1.7-1.7 1.7h-5.2c-0.9 0-1.7-0.8-1.7-1.7v-4.3c0-0.9 0.8-1.7 1.7-1.7z"/>
     <path id="keyB" d="m416.6 3697.1h5.2c0.9 0 1.7 0.8 1.7 1.7v4.3c0 0.9-0.8 1.7-1.7 1.7h-5.2c-0.9 0-1.7-0.8-1.7-1.7v-4.3c0-1 0.8-1.7 1.7-1.7z"/>
     <path id="keyU" d="m427.7 3677h5.2c0.9 0 1.7 0.8 1.7 1.7v4.3c0 0.9-0.8 1.7-1.7 1.7h-5.2c-0.9 0-1.7-0.8-1.7-1.7v-4.3c0-0.9 0.8-1.7 1.7-1.7z"/>
     <path id="keyH" d="m422.1 3687h5.2c0.9 0 1.7 0.8 1.7 1.7v4.3c0 0.9-0.8 1.7-1.7 1.7h-5.2c-0.9 0-1.7-0.8-1.7-1.7v-4.3c0-0.9 0.8-1.7 1.7-1.7z"/>
     <path id="keyN" d="m427.7 3697.1h5.2c0.9 0 1.7 0.8 1.7 1.7v4.3c0 0.9-0.8 1.7-1.7 1.7h-5.2c-0.9 0-1.7-0.8-1.7-1.7v-4.3c0-1 0.8-1.7 1.7-1.7z"/>
     <path id="keyI" d="m438.8 3677h5.2c0.9 0 1.7 0.8 1.7 1.7v4.3c0 0.9-0.8 1.7-1.7 1.7h-5.2c-0.9 0-1.7-0.8-1.7-1.7v-4.3c0-0.9 0.8-1.7 1.7-1.7z"/>
     <path id="keyJ" d="m433.2 3687h5.2c0.9 0 1.7 0.8 1.7 1.7v4.3c0 0.9-0.8 1.7-1.7 1.7h-5.2c-0.9 0-1.7-0.8-1.7-1.7v-4.3c0-0.9 0.8-1.7 1.7-1.7z"/>
     <path id="keyM" d="m438.8 3697.1h5.2c0.9 0 1.7 0.8 1.7 1.7v4.3c0 0.9-0.8 1.7-1.7 1.7h-5.2c-0.9 0-1.7-0.8-1.7-1.7v-4.3c0-1 0.8-1.7 1.7-1.7z"/>
     <path id="keyO" d="m449.9 3677h5.2c0.9 0 1.7 0.8 1.7 1.7v4.3c0 0.9-0.8 1.7-1.7 1.7h-5.2c-0.9 0-1.7-0.8-1.7-1.7v-4.3c0-0.9 0.8-1.7 1.7-1.7z"/>
     <path id="keyK" d="m444.3 3687h5.2c0.9 0 1.7 0.8 1.7 1.7v4.3c0 0.9-0.8 1.7-1.7 1.7h-5.2c-0.9 0-1.7-0.8-1.7-1.7v-4.3c0-0.9 0.8-1.7 1.7-1.7z"/>
     <path id="path51158" d="m449.9 3697.1h5.2c0.9 0 1.7 0.8 1.7 1.7v4.3c0 0.9-0.8 1.7-1.7 1.7h-5.2c-0.9 0-1.7-0.8-1.7-1.7v-4.3c0-1 0.8-1.7 1.7-1.7z"/>
     <path id="keyP" d="m461 3677h5.2c0.9 0 1.7 0.8 1.7 1.7v4.3c0 0.9-0.8 1.7-1.7 1.7h-5.2c-0.9 0-1.7-0.8-1.7-1.7v-4.3c0-0.9 0.7-1.7 1.7-1.7z"/>
     <path id="keyL" d="m455.4 3687h5.2c0.9 0 1.7 0.8 1.7 1.7v4.3c0 0.9-0.8 1.7-1.7 1.7h-5.2c-0.9 0-1.7-0.8-1.7-1.7v-4.3c0-0.9 0.7-1.7 1.7-1.7z"/>
     <path id="keyApos" d="m461 3697.1h5.2c0.9 0 1.7 0.8 1.7 1.7v4.3c0 0.9-0.8 1.7-1.7 1.7h-5.2c-0.9 0-1.7-0.8-1.7-1.7v-4.3c0-1 0.7-1.7 1.7-1.7z"/>
     <path id="keySpace" d="m366.7 3707.1h93.9c0.9 0 1.7 0.8 1.7 1.7v4.3c0 0.9-0.8 1.7-1.7 1.7h-93.9c-0.9 0-1.7-0.8-1.7-1.7v-4.3c0-1 0.8-1.7 1.7-1.7z"/>
     <path id="path51168" d="m472.1 3677h5.2c0.9 0 1.7 0.8 1.7 1.7v4.3c0 0.9-0.8 1.7-1.7 1.7h-5.2c-0.9 0-1.7-0.8-1.7-1.7v-4.3c0-0.9 0.7-1.7 1.7-1.7z"/>
     <path id="path51170" d="m466.5 3687h5.2c0.9 0 1.7 0.8 1.7 1.7v4.3c0 0.9-0.8 1.7-1.7 1.7h-5.2c-0.9 0-1.7-0.8-1.7-1.7v-4.3c0-0.9 0.7-1.7 1.7-1.7z"/>
     <path id="keyDot" d="m472.1 3697.1h5.2c0.9 0 1.7 0.8 1.7 1.7v4.3c0 0.9-0.8 1.7-1.7 1.7h-5.2c-0.9 0-1.7-0.8-1.7-1.7v-4.3c0-1 0.7-1.7 1.7-1.7z"/>
     <path id="path51174" d="m466.5 3707.1h5.2c0.9 0 1.7 0.8 1.7 1.7v4.3c0 0.9-0.8 1.7-1.7 1.7h-5.2c-0.9 0-1.7-0.8-1.7-1.7v-4.3c0-1 0.7-1.7 1.7-1.7z"/>
     <path id="path51176" d="m477.5 3687h5.2c0.9 0 1.7 0.8 1.7 1.7v4.3c0 0.9-0.8 1.7-1.7 1.7h-5.2c-0.9 0-1.7-0.8-1.7-1.7v-4.3c0.1-0.9 0.8-1.7 1.7-1.7z"/>
    </g>
    <g clip-rule="evenodd" fill-rule="evenodd">
     <path id="path51178" d="m465.9 3584.1c-8.6 17.1-28.8 29.1-52.2 29.1-24.2 0-44.9-12.8-53-30.8l36.3-11.6h31.7l37.2 13.3z" fill="#808f8c"/>
     <path id="path51180" d="m437.8 3574.1c-4 7.9-13.3 13.5-24.2 13.5-11.2 0-20.8-5.9-24.6-14.2v-2.5h48.7l0.1 3.2z" fill="#682533"/>
     <path id="path51182" d="m437.8 3574.1c-4 7.9-13.3 13.5-24.2 13.5-11.2 0-20.8-5.9-24.6-14.2l4.4-1.4c3.1 6.9 11 11.7 20.2 11.7 8.9 0 16.6-4.6 19.9-11.1l4.3 1.5z" fill="#a6b3b0"/>
    </g>
    <g id="g51184" style="color-rendering:auto;color:#000000;isolation:auto;mix-blend-mode:normal;shape-rendering:auto;solid-color:#000000;image-rendering:auto" fill="#d8e6e3">
     <path id="s2" style="color-rendering:auto;color:#000000;isolation:auto;mix-blend-mode:normal;shape-rendering:auto;solid-color:#000000;image-rendering:auto" d="m394.3 3573.5-40.7 16c-0.1-0.2-0.2-0.3-0.3-0.5l40.7-16c0.1 0.1 0.2 0.3 0.3 0.5z"/>
     <path id="s3" style="color-rendering:auto;color:#000000;isolation:auto;mix-blend-mode:normal;shape-rendering:auto;solid-color:#000000;image-rendering:auto" d="m395 3574.6-39.2 18.5c-0.1-0.2-0.2-0.3-0.3-0.5l39.2-18.5c0.1 0.2 0.2 0.4 0.3 0.5z"/>
     <path id="s4" style="color-rendering:auto;color:#000000;isolation:auto;mix-blend-mode:normal;shape-rendering:auto;solid-color:#000000;image-rendering:auto" d="m395.9 3575.7-37.5 20.8c-0.1-0.2-0.2-0.3-0.4-0.5l37.5-20.8c0.1 0.2 0.3 0.4 0.4 0.5z"/>
     <path id="s5" style="color-rendering:auto;color:#000000;isolation:auto;mix-blend-mode:normal;shape-rendering:auto;solid-color:#000000;image-rendering:auto" d="m396.8 3576.8-35.7 23l-0.4-0.4 35.7-23 0.4 0.4z"/>
     <path id="s6" style="color-rendering:auto;color:#000000;isolation:auto;mix-blend-mode:normal;shape-rendering:auto;solid-color:#000000;image-rendering:auto" d="m397.7 3577.7-33.7 25l-0.4-0.4 33.7-25 0.4 0.4z"/>
     <path id="s7" style="color-rendering:auto;color:#000000;isolation:auto;mix-blend-mode:normal;shape-rendering:auto;solid-color:#000000;image-rendering:auto" d="m398.8 3578.6-31.7 26.8c-0.2-0.1-0.3-0.3-0.5-0.4l31.6-26.8c0.2 0.1 0.4 0.2 0.6 0.4z"/>
     <path id="s8" style="color-rendering:auto;color:#000000;isolation:auto;mix-blend-mode:normal;shape-rendering:auto;solid-color:#000000;image-rendering:auto" d="m399.8 3579.4-29.5 28.5c-0.2-0.1-0.3-0.2-0.5-0.4l29.5-28.5c0.2 0.1 0.3 0.2 0.5 0.4z"/>
     <path id="s9" style="color-rendering:auto;color:#000000;isolation:auto;mix-blend-mode:normal;shape-rendering:auto;solid-color:#000000;image-rendering:auto" d="m400.9 3580.1-27.3 30c-0.2-0.1-0.3-0.2-0.5-0.3l27.3-30c0.2 0.1 0.3 0.2 0.5 0.3z"/>
     <path id="s10" style="color-rendering:auto;color:#000000;isolation:auto;mix-blend-mode:normal;shape-rendering:auto;solid-color:#000000;image-rendering:auto" d="m402 3580.7-25 31.4c-0.2-0.1-0.3-0.2-0.5-0.3l25-31.4c0.2 0.1 0.3 0.2 0.5 0.3z"/>
     <path id="s11" style="color-rendering:auto;color:#000000;isolation:auto;mix-blend-mode:normal;shape-rendering:auto;solid-color:#000000;image-rendering:auto" d="m403.1 3581.3-22.6 32.6c-0.2-0.1-0.4-0.2-0.5-0.3l22.6-32.6c0.2 0.1 0.4 0.2 0.5 0.3z"/>
     <path id="s12" style="color-rendering:auto;color:#000000;isolation:auto;mix-blend-mode:normal;shape-rendering:auto;solid-color:#000000;image-rendering:auto" d="m404.3 3581.8-20.3 33.7c-0.2-0.1-0.4-0.2-0.5-0.2l20.3-33.7c0.1 0 0.3 0.1 0.5 0.2z"/>
     <path id="s13" style="color-rendering:auto;color:#000000;isolation:auto;mix-blend-mode:normal;shape-rendering:auto;solid-color:#000000;image-rendering:auto" d="m405.4 3582.2-17.8 34.7c-0.2-0.1-0.4-0.1-0.6-0.2l17.8-34.7c0.3 0.1 0.5 0.2 0.6 0.2z"/>
     <path id="s14" style="color-rendering:auto;color:#000000;isolation:auto;mix-blend-mode:normal;shape-rendering:auto;solid-color:#000000;image-rendering:auto" d="m406.6 3582.6-15.4 35.5c-0.2-0.1-0.4-0.1-0.6-0.2l15.4-35.5c0.2 0.1 0.4 0.2 0.6 0.2z"/>
     <path id="s15" style="color-rendering:auto;color:#000000;isolation:auto;mix-blend-mode:normal;shape-rendering:auto;solid-color:#000000;image-rendering:auto" d="m407.8 3582.9-13 36.2c-0.2 0-0.4-0.1-0.6-0.1l13-36.2c0.2 0 0.4 0.1 0.6 0.1z"/>
     <path id="s16" style="color-rendering:auto;color:#000000;isolation:auto;mix-blend-mode:normal;shape-rendering:auto;solid-color:#000000;image-rendering:auto" d="m409 3583.2-10.5 36.8c-0.2 0-0.4-0.1-0.6-0.1l10.5-36.8c0.2 0 0.4 0 0.6 0.1z"/>
     <path id="s17" style="color-rendering:auto;color:#000000;isolation:auto;mix-blend-mode:normal;shape-rendering:auto;solid-color:#000000;image-rendering:auto" d="m410.2 3583.4-8.1 37.2c-0.2 0-0.4-0.1-0.6-0.1l8.1-37.2c0.2 0 0.4 0 0.6 0.1z"/>
     <path id="s18" style="color-rendering:auto;color:#000000;isolation:auto;mix-blend-mode:normal;shape-rendering:auto;solid-color:#000000;image-rendering:auto" d="m411.4 3583.5-5.6 37.5c-0.2 0-0.4 0-0.6-0.1l5.6-37.5c0.2 0.1 0.4 0.1 0.6 0.1z"/>
     <path id="s19" style="color-rendering:auto;color:#000000;isolation:auto;mix-blend-mode:normal;shape-rendering:auto;solid-color:#000000;image-rendering:auto" d="m412.5 3583.6-3.1 37.7h-0.6l3.1-37.7h0.6z"/>
     <path id="s20" style="color-rendering:auto;color:#000000;isolation:auto;mix-blend-mode:normal;shape-rendering:auto;solid-color:#000000;image-rendering:auto" d="m413.7 3583.6-0.6 37.8h-0.6l0.6-37.8h0.6z"/>
     <path id="s21" style="color-rendering:auto;color:#000000;isolation:auto;mix-blend-mode:normal;shape-rendering:auto;solid-color:#000000;image-rendering:auto" d="m414.9 3583.6 1.8 37.8h-0.6l-1.8-37.8h0.6z"/>
     <path id="s22" style="color-rendering:auto;color:#000000;isolation:auto;mix-blend-mode:normal;shape-rendering:auto;solid-color:#000000;image-rendering:auto" d="m416.1 3583.5 4.3 37.6h-0.6l-4.3-37.6h0.6z"/>
     <path id="s23" style="color-rendering:auto;color:#000000;isolation:auto;mix-blend-mode:normal;shape-rendering:auto;solid-color:#000000;image-rendering:auto" d="m417.3 3583.3 6.8 37.4c-0.2 0-0.4 0.1-0.6 0.1l-6.8-37.4c0.2 0 0.4 0 0.6-0.1z"/>
     <path id="s24" style="color-rendering:auto;color:#000000;isolation:auto;mix-blend-mode:normal;shape-rendering:auto;solid-color:#000000;image-rendering:auto" d="m418.5 3583.2 9.3 37c-0.2 0-0.4 0.1-0.6 0.1l-9.3-37c0.2-0.1 0.4-0.1 0.6-0.1z"/>
     <path id="s25" style="color-rendering:auto;color:#000000;isolation:auto;mix-blend-mode:normal;shape-rendering:auto;solid-color:#000000;image-rendering:auto" d="m419.6 3582.9 11.7 36.5c-0.2 0-0.4 0.1-0.6 0.1l-11.7-36.5c0.3 0 0.5-0.1 0.6-0.1z"/>
     <path id="s26" style="color-rendering:auto;color:#000000;isolation:auto;mix-blend-mode:normal;shape-rendering:auto;solid-color:#000000;image-rendering:auto" d="m420.8 3582.6 14.2 35.9c-0.2 0.1-0.4 0.1-0.6 0.2l-14.2-35.9c0.2-0.1 0.4-0.2 0.6-0.2z"/>
     <path id="s27" style="color-rendering:auto;color:#000000;isolation:auto;mix-blend-mode:normal;shape-rendering:auto;solid-color:#000000;image-rendering:auto" d="m422 3582.2 16.6 35.1c-0.2 0.1-0.4 0.1-0.6 0.2l-16.6-35.1c0.2-0.1 0.4-0.1 0.6-0.2z"/>
     <path id="s28" style="color-rendering:auto;color:#000000;isolation:auto;mix-blend-mode:normal;shape-rendering:auto;solid-color:#000000;image-rendering:auto" d="m423.1 3581.8 19 34.2c-0.2 0.1-0.4 0.1-0.5 0.2l-19-34.2c0.2-0.1 0.4-0.2 0.5-0.2z"/>
     <path id="s29" style="color-rendering:auto;color:#000000;isolation:auto;mix-blend-mode:normal;shape-rendering:auto;solid-color:#000000;image-rendering:auto" d="m424.3 3581.3 21.4 33.2c-0.2 0.1-0.4 0.2-0.5 0.2l-21.4-33.2c0.1-0.1 0.3-0.2 0.5-0.2z"/>
     <path id="s30" style="color-rendering:auto;color:#000000;isolation:auto;mix-blend-mode:normal;shape-rendering:auto;solid-color:#000000;image-rendering:auto" d="m425.4 3580.7 23.8 32.1c-0.2 0.1-0.3 0.2-0.5 0.3l-23.8-32.1c0.2-0.1 0.3-0.2 0.5-0.3z"/>
     <path id="s31" style="color-rendering:auto;color:#000000;isolation:auto;mix-blend-mode:normal;shape-rendering:auto;solid-color:#000000;image-rendering:auto" d="m426.5 3580 26.1 30.8c-0.2 0.1-0.3 0.2-0.5 0.3l-26.1-30.8c0.2 0 0.3-0.1 0.5-0.3z"/>
     <path id="s32" style="color-rendering:auto;color:#000000;isolation:auto;mix-blend-mode:normal;shape-rendering:auto;solid-color:#000000;image-rendering:auto" d="m427.6 3579.3 28.4 29.3c-0.2 0.1-0.3 0.2-0.5 0.3l-28.4-29.3c0.2 0 0.3-0.2 0.5-0.3z"/>
     <path id="s33" style="color-rendering:auto;color:#000000;isolation:auto;mix-blend-mode:normal;shape-rendering:auto;solid-color:#000000;image-rendering:auto" d="m428.6 3578.5 30.6 27.7c-0.2 0.1-0.3 0.2-0.5 0.4l-30.6-27.7c0.2-0.1 0.4-0.2 0.5-0.4z"/>
     <path id="s34" style="color-rendering:auto;color:#000000;isolation:auto;mix-blend-mode:normal;shape-rendering:auto;solid-color:#000000;image-rendering:auto" d="m429.6 3577.7 32.7 25.9l-0.4 0.4-32.7-25.9c0.1-0.2 0.3-0.3 0.4-0.4z"/>
     <path id="s35" style="color-rendering:auto;color:#000000;isolation:auto;mix-blend-mode:normal;shape-rendering:auto;solid-color:#000000;image-rendering:auto" d="m430.6 3576.7 34.7 24l-0.4 0.4-34.7-24 0.4-0.4z"/>
     <path id="s36" style="color-rendering:auto;color:#000000;isolation:auto;mix-blend-mode:normal;shape-rendering:auto;solid-color:#000000;image-rendering:auto" d="m431.5 3575.7 36.6 21.9c-0.1 0.2-0.3 0.3-0.4 0.5l-36.6-21.9c0.1-0.2 0.2-0.3 0.4-0.5z"/>
     <path id="s37" style="color-rendering:auto;color:#000000;isolation:auto;mix-blend-mode:normal;shape-rendering:auto;solid-color:#000000;image-rendering:auto" d="m432.3 3574.6 38.3 19.7c-0.1 0.2-0.2 0.3-0.3 0.5l-38.3-19.7c0.1-0.1 0.2-0.3 0.3-0.5z"/>
     <path id="s38" style="color-rendering:auto;color:#000000;isolation:auto;mix-blend-mode:normal;shape-rendering:auto;solid-color:#000000;image-rendering:auto" d="m433 3573.5 39.9 17.3c-0.1 0.2-0.2 0.3-0.3 0.5l-39.9-17.3c0.1-0.2 0.2-0.3 0.3-0.5z"/>
     <path id="s39" style="color-rendering:auto;color:#000000;isolation:auto;mix-blend-mode:normal;shape-rendering:auto;solid-color:#000000;image-rendering:auto" d="m433.7 3572.3 41.3 14.7c-0.1 0.2-0.2 0.3-0.3 0.5l-41.3-14.8c0.1-0.1 0.2-0.3 0.3-0.4z"/>
     <path id="s1" style="color-rendering:auto;color:#000000;isolation:auto;mix-blend-mode:normal;shape-rendering:auto;solid-color:#000000;image-rendering:auto" d="m393.6 3572.2-42 13.4c-0.1-0.2-0.2-0.4-0.3-0.5l42-13.4c0.2 0.2 0.3 0.4 0.3 0.5z"/>
    </g>
    <path id="path51266" fill="#d8e6e3" d="m469.3 3594.3v-0.7l1.3 0.7c-0.1 0.2-0.2 0.3-0.3 0.5l-1-0.5zm0-4.4v-0.6l3.6 1.6c-0.1 0.2-0.2 0.3-0.3 0.5l-3.3-1.5zm0-4.3v-0.6l5.7 2c-0.1 0.2-0.2 0.3-0.3 0.5l-5.4-1.9zm0-0.6v0.6l-3.6-1.3c0-0.1 0.1-0.2 0.1-0.3l0.1-0.3 3.4 1.3zm0 4.2v0.6l-4.4-1.9v-0.6l4.4 1.9zm0 4.5v0.7l-4.4-2.2v-0.7l4.4 2.2zm-4.3 7.3v-0.5l0.3 0.2-0.3 0.3zm0-4.5v-0.7l3.1 1.8c-0.1 0.2-0.3 0.3-0.4 0.5l-2.7-1.6zm0-9.2v0.6l-1-0.5c0.1-0.2 0.2-0.3 0.3-0.5l0.7 0.4zm0 4.1v0.7l-3.1-1.6c0.1-0.2 0.2-0.3 0.3-0.5l2.8 1.4zm0 4.4v0.7l-4-2.4v-0.7l4 2.4zm0 4.7v0.5l-0.1 0.1-3.9-2.7v-0.7l4 2.8zm-4 2.8v-0.7l1.3 1-0.4 0.4-0.9-0.7zm0-9.9v0.7l-1.3-0.8c0.1-0.2 0.3-0.3 0.4-0.5l0.9 0.6zm0 4.4v0.7l-2.8-1.9v-0.7l2.8 1.9zm0 4.8v0.7l-2.8-2.2v-0.7l2.8 2.2zm-2.8 3.6v-0.8l1 0.9c-0.2 0.1-0.3 0.2-0.5 0.4l-0.5-0.5zm0-10.3v0.7l-1-0.7 0.4-0.4 0.6 0.4zm0 4.5v0.7l-2.9-2.3v-0.7l2.9 2.3zm0 5v0.8l-2.9-2.6v-0.8l2.9 2.6zm-2.9 3.4v-0.8l0.6 0.6c-0.2 0.1-0.3 0.2-0.5 0.3l-0.1-0.1zm0-10.7v0.7l-0.6-0.5 0.4-0.4 0.2 0.2zm0 4.6v0.8l-3-2.7v-0.5l0.2-0.1 2.8 2.5zm0 5.3v0.8l-3-3.1v-0.8l3 3.1zm-3 3v-0.5l0.3 0.3-0.3 0.2zm0-10.7v0.5l-0.3-0.3 0.3-0.2zm0 4.6v0.8l-1.4-1.4v-0.8l1.4 1.4zm0 5.6v0.5l-0.2 0.1-1.2-1.4v-0.9l1.4 1.7zm-1.4-7v0.8l-1.7-1.7c0.2-0.1 0.3-0.2 0.5-0.3l1.2 1.2zm0 5.3v0.9l-3.1-3.7v-0.9l3.1 3.7zm-3.1 3.1v-1l1.4 1.9c-0.2 0.1-0.3 0.2-0.5 0.3l-0.9-1.2zm0-6.8v0.9l-1.4-1.6c0.2-0.1 0.3-0.2 0.5-0.3l0.9 1zm0 5.8v1l-3.2-4.3v-1l3.2 4.3zm-3.2 2.9v-1.1l1.1 1.7c-0.2 0.1-0.4 0.2-0.5 0.2l-0.6-0.8zm0-7.2v1l-1.1-1.5c0.2-0.1 0.4-0.2 0.5-0.3l0.6 0.8zm0 6.2v1.1l-3.3-5.1v-1.1l3.3 5.1zm-3.3 2.9v-1.2l0.8 1.5c-0.2 0.1-0.4 0.1-0.5 0.2l-0.3-0.5zm0-8v1.1l-0.8-1.3c0.2-0.1 0.4-0.2 0.5-0.2l0.3 0.4zm0 6.8-3.3-5.9v1.2l3.3 5.9v-1.2zm-3.3 3v-1.4l0.6 1.2c-0.2 0.1-0.4 0.2-0.6 0.2zm0-8.9v1.2l-0.6-1c0.2-0.1 0.4-0.2 0.6-0.2zm0 7.5-3.1-6.5-0.3 0.1v0.7l3.3 7v-1.3h0.1zm-3.3 2.4v-0.8l0.3 0.7-0.3 0.1zm0-8.7v0.7l-0.3-0.6c0.1-0.1 0.2-0.1 0.3-0.1zm0 7.9v0.8l-0.3 0.1-3.1-7.8v-0.1c0.2-0.1 0.4-0.1 0.5-0.2l2.9 7.2zm-3.4 1.7zm0-8.6zm0 8.5c-0.2 0.1-0.4 0.1-0.6 0.2l-2.6-8c0.2 0 0.4-0.1 0.6-0.1l2.6 7.9zm-36.9-0.3v-0.5l2.7-7.5c0.2 0 0.4 0.1 0.6 0.1l-2.8 7.9h-0.5zm0-8.3v-0.4h0.2l-0.2 0.4zm6.4 1.2-2.3 8c-0.2 0-0.4-0.1-0.6-0.1l2.3-8c0.2 0 0.4 0.1 0.6 0.1zm3.1 0.5-1.8 8.1c-0.2 0-0.4-0.1-0.6-0.1l1.8-8.1c0.2 0.1 0.4 0.1 0.6 0.1zm3.1 0.4-1.2 8.2c-0.2 0-0.4 0-0.6-0.1l1.2-8.2c0.2 0.1 0.4 0.1 0.6 0.1zm3.1 0.3-0.7 8.2h-0.6l0.7-8.2c0.2-0.1 0.4-0.1 0.6 0zm3.1 0-0.1 8.2h-0.6l0.1-8.3c0.2 0.1 0.4 0.1 0.6 0.1zm3.2 0 0.4 8.2h-0.6l-0.4-8.2h0.6zm3.1-0.2 0.9 8.2h-0.6l-0.9-8.2h0.6zm3.1-0.3 1.5 8.2c-0.2 0-0.4 0.1-0.6 0.1l-1.5-8.2c0.2-0.1 0.4-0.1 0.6-0.1zm3.1-0.5 2 8.1c-0.2 0-0.4 0.1-0.6 0.1l-2-8.1c0.2-0.1 0.4-0.1 0.6-0.1zm-31.3-1.8v0.4l-3.2 7.4h-0.1v-1.1l2.9-6.8c0.1 0 0.3 0.1 0.4 0.1zm0 8.2v0.5h-0.2l0.2-0.5zm-3.3-8.3v-1c0.1 0.1 0.3 0.1 0.4 0.2l-0.4 0.8zm0-1v1l-3.3 6.4v-1.3l3.2-6.2 0.1 0.1zm0 7.8v1.1l-0.4-0.1 0.4-1zm-3.4-7.7 0.7-1.2c-0.2-0.1-0.4-0.2-0.5-0.2l-0.2 0.3v1.1zm0-1.1v1.1l-3.3 5.5v-1.1l3.3-5.5zm0 7.2v1.3l-0.1 0.3c-0.2-0.1-0.4-0.1-0.6-0.2l0.7-1.4zm-3.2-7.2 1-1.4c-0.2-0.1-0.4-0.2-0.5-0.3l-0.4 0.6v1.1zm0-1v1l-3.2 4.7v-1l3.2-4.7zm0 6.5v1.1l-0.4 0.7c-0.2-0.1-0.4-0.2-0.5-0.2l0.9-1.6zm-3.3-6.8v-0.9l0.7-0.9c0.2 0.1 0.3 0.2 0.5 0.3l-1.2 1.5zm0-1v0.9l-4.2 5.3c-0.1-0.1-0.3-0.1-0.4-0.2v-0.2l4.6-5.8zm0 6-1.3 1.8c0.2 0.1 0.4 0.2 0.5 0.3l0.7-1v-1.1h0.1zm-4.6-5.1 2.9-3.2c-0.2-0.1-0.3-0.2-0.5-0.3l-2.4 2.7v0.8zm0-5.1v-0.2l0.1 0.1-0.1 0.1zm0-0.2v0.2l-3.1 3v-0.8l2.7-2.6c0.2 0.1 0.3 0.2 0.4 0.2zm0 4.4v0.9l-3 3.3h-0.1v-0.8l3.1-3.4zm0 5.8v0.2l-0.1-0.1 0.1-0.1zm-3-11.8v-0.7c0.1 0.1 0.3 0.2 0.4 0.4l-0.4 0.3zm0-0.8v0.7l-3 2.5v-0.8l3-2.4zm0 4.8v0.8l-3 2.9v-0.8l3-2.9zm0 5.4v0.8c-0.1-0.1-0.3-0.2-0.4-0.3l0.4-0.5zm-3-11.5v-0.7l0.3-0.3 0.4 0.4-0.7 0.6zm0-0.7v0.7l-2.8 2.1v-0.7l2.8-2.1zm0 4.5v0.8l-2.8 2.4v-0.8l2.8-2.4zm0 5.2v0.8l-0.3 0.3c-0.2-0.1-0.3-0.2-0.5-0.4l0.8-0.7zm-2.8-11.4v-0.7l0.7-0.5 0.4 0.4-1.1 0.8zm0-0.7v0.7l-4.1 2.7v-0.7l4.1-2.7zm0 4.5v0.7l-3.7 2.8c-0.1-0.1-0.3-0.2-0.4-0.4v-0.1l4.1-3zm0 4.8v0.8l-0.7 0.6c-0.2-0.1-0.3-0.3-0.5-0.4l1.2-1zm-4.2-10.4v-0.7l2.6-1.4c0.1 0.2 0.2 0.3 0.4 0.5l-3 1.6zm0-4.1v-0.6l0.5-0.2c0.1 0.2 0.2 0.3 0.3 0.5l-0.8 0.3zm-1.1-3.5-3.5 1.4v-0.6l3.2-1.3c0.1 0.1 0.2 0.3 0.3 0.5zm1.1 2.8v0.6l-4.6 2.2v-0.6l4.6-2.2zm0 4.1v0.7l-4.6 2.6v-0.7l4.6-2.6zm0 4.5v0.7l-2.5 1.6-0.4-0.4 2.9-1.9zm0 4.8zm-4.6-18.9v-0.6l1.6-0.5 0.1 0.2c0.1 0.1 0.1 0.2 0.2 0.4l-1.9 0.5zm0 4.1-5.4 2.1c-0.1-0.2-0.2-0.3-0.3-0.5l5.7-2.2v0.6zm0-4.7v0.6l-7.4 2.4c-0.1-0.2-0.2-0.4-0.3-0.5l7.7-2.5zm0 8.3v0.6l-3.2 1.5c-0.1-0.2-0.2-0.3-0.3-0.5l3.5-1.6zm0 4.5v0.7l-0.6 0.4c-0.1-0.2-0.2-0.3-0.4-0.5l1-0.6z"/>
    <g stroke="#d8e6e3" stroke-width="1.1999" stroke-miterlimit="22.926" fill="none">
     <path id="w2" d="m362.5 3586-8.9 3.5c-0.1-0.2-0.2-0.3-0.3-0.5l8.9-3.5c0.1 0.1 0.2 0.3 0.3 0.5z"/>
     <path id="w3" d="m364.4 3589.1-8.6 4c-0.1-0.2-0.2-0.3-0.3-0.5l8.6-4c0.1 0.2 0.2 0.3 0.3 0.5z"/>
     <path id="w4" d="m366.6 3592-8.2 4.5c-0.1-0.2-0.2-0.3-0.4-0.5l8.2-4.5c0.1 0.2 0.2 0.3 0.4 0.5z"/>
     <path id="w5" d="m368.9 3594.7-7.8 5l-0.4-0.4 7.8-5c0.1 0.1 0.3 0.2 0.4 0.4z"/>
     <path id="w6" d="m371.4 3597.2-7.4 5.4l-0.4-0.4 7.4-5.4c0.1 0.1 0.2 0.3 0.4 0.4z"/>
     <path id="w7" d="m374 3599.5-6.9 5.9c-0.2-0.1-0.3-0.3-0.5-0.4l6.9-5.9c0.2 0.2 0.4 0.3 0.5 0.4z"/>
     <path id="w8" d="m376.7 3601.6-6.4 6.2c-0.2-0.1-0.3-0.2-0.5-0.4l6.4-6.2c0.2 0.2 0.4 0.3 0.5 0.4z"/>
     <path id="w9" d="m379.6 3603.6-6 6.6c-0.2-0.1-0.3-0.2-0.5-0.3l6-6.6c0.1 0 0.3 0.1 0.5 0.3z"/>
     <path id="w10" d="m382.5 3605.3-5.5 6.9c-0.2-0.1-0.3-0.2-0.5-0.3l5.5-6.9c0.1 0.1 0.3 0.2 0.5 0.3z"/>
     <path id="w11" d="m385.4 3606.8-4.9 7.1c-0.2-0.1-0.4-0.2-0.5-0.3l4.9-7.1c0.2 0.1 0.4 0.2 0.5 0.3z"/>
     <path id="w12" d="m388.5 3608.2-4.4 7.4c-0.2-0.1-0.4-0.2-0.5-0.2l4.4-7.4c0.1 0 0.3 0.1 0.5 0.2z"/>
     <path id="w13" d="m391.5 3609.4-3.9 7.6c-0.2-0.1-0.4-0.1-0.6-0.2l3.9-7.6c0.2 0 0.4 0.1 0.6 0.2z"/>
     <path id="w14" d="m394.6 3610.4-3.4 7.8c-0.2-0.1-0.4-0.1-0.6-0.2l3.4-7.8c0.2 0.1 0.4 0.1 0.6 0.2z"/>
     <path id="w15" d="m397.7 3611.2-2.8 7.9c-0.2 0-0.4-0.1-0.6-0.1l2.8-7.9c0.2 0 0.4 0.1 0.6 0.1z"/>
     <path id="w16" d="m400.8 3611.9-2.3 8c-0.2 0-0.4-0.1-0.6-0.1l2.3-8c0.2 0 0.4 0.1 0.6 0.1z"/>
     <path id="w17" d="m403.9 3612.4-1.8 8.1c-0.2 0-0.4-0.1-0.6-0.1l1.8-8.1c0.2 0.1 0.4 0.1 0.6 0.1z"/>
     <path id="w18" d="m407 3612.8-1.2 8.2c-0.2 0-0.4 0-0.6-0.1l1.2-8.2c0.2 0.1 0.4 0.1 0.6 0.1z"/>
     <path id="w19" d="m410.1 3613.1-0.7 8.2h-0.6l0.7-8.2c0.2-0.1 0.4-0.1 0.6 0z"/>
     <path id="w20" d="m413.2 3613.1-0.1 8.2h-0.6l0.1-8.3c0.2 0.1 0.4 0.1 0.6 0.1z"/>
     <path id="w21" d="m416.4 3613.1 0.4 8.2h-0.6l-0.4-8.2h0.6z"/>
     <path id="w22" d="m419.5 3612.9 0.9 8.2h-0.6l-0.9-8.2h0.6z"/>
     <path id="w23" d="m422.6 3612.6 1.5 8.2c-0.2 0-0.4 0.1-0.6 0.1l-1.5-8.2c0.2-0.1 0.4-0.1 0.6-0.1z"/>
     <path id="w24" d="m425.7 3612.1 2 8.1c-0.2 0-0.4 0.1-0.6 0.1l-2-8.1c0.2-0.1 0.4-0.1 0.6-0.1z"/>
     <path id="w25" d="m428.8 3611.4 2.6 8c-0.2 0-0.4 0.1-0.6 0.1l-2.6-8c0.2 0 0.4 0 0.6-0.1z"/>
     <path id="w26" d="m431.9 3610.6 3.1 7.8c-0.2 0.1-0.4 0.1-0.6 0.2l-3.1-7.8c0.2-0.1 0.4-0.1 0.6-0.2z"/>
     <path id="w27" d="m435 3609.7 3.6 7.7c-0.2 0.1-0.4 0.1-0.6 0.2l-3.6-7.7c0.2-0.1 0.4-0.2 0.6-0.2z"/>
     <path id="w28" d="m438 3608.5 4.2 7.5c-0.2 0.1-0.4 0.1-0.5 0.2l-4.2-7.5c0.1 0 0.3-0.1 0.5-0.2z"/>
     <path id="w29" d="m441 3607.2 4.7 7.3c-0.2 0.1-0.4 0.2-0.5 0.2l-4.7-7.3c0.2 0 0.3-0.1 0.5-0.2z"/>
     <path id="w30" d="m444 3605.8 5.2 7c-0.2 0.1-0.3 0.2-0.5 0.3l-5.2-7c0.1-0.2 0.3-0.3 0.5-0.3z"/>
     <path id="w31" d="m446.9 3604.1 5.7 6.7c-0.2 0.1-0.3 0.2-0.5 0.3l-5.7-6.7c0.2-0.1 0.3-0.2 0.5-0.3z"/>
     <path id="w32" d="m449.7 3602.2 6.2 6.4c-0.2 0.1-0.3 0.2-0.5 0.3l-6.2-6.4c0.2 0 0.4-0.1 0.5-0.3z"/>
     <path id="w33" d="m452.5 3600.2 6.7 6c-0.2 0.1-0.3 0.2-0.5 0.4l-6.7-6c0.2-0.2 0.4-0.3 0.5-0.4z"/>
     <path id="w34" d="m455.2 3597.9 7.1 5.7l-0.4 0.4-7.1-5.7 0.4-0.4z"/>
     <path id="w35" d="m457.7 3595.5 7.6 5.2l-0.4 0.4-7.6-5.2c0.1-0.1 0.2-0.3 0.4-0.4z"/>
     <path id="w36" d="m460.1 3592.9 8 4.8c-0.1 0.2-0.3 0.3-0.4 0.5l-8-4.8c0.1-0.2 0.2-0.4 0.4-0.5z"/>
     <path id="w37" d="m462.3 3590 8.4 4.3c-0.1 0.2-0.2 0.3-0.3 0.5l-8.4-4.3c0-0.2 0.1-0.3 0.3-0.5z"/>
     <path id="w38" d="m464.2 3587 8.7 3.8c-0.1 0.2-0.2 0.3-0.3 0.5l-8.7-3.8c0.1-0.2 0.2-0.3 0.3-0.5z"/>
     <path id="w39" d="m466 3583.8 9 3.2c-0.1 0.2-0.2 0.3-0.3 0.5l-9-3.2c0-0.1 0.1-0.2 0.1-0.3l0.2-0.2z"/>
     <path id="w1" d="m360.8 3582.7-9.2 2.9c-0.1-0.2-0.2-0.4-0.3-0.5l9.2-2.9 0.1 0.2c0.1 0.1 0.2 0.2 0.2 0.3z"/>
    </g>
    <g id="g51270" fill="#808f8c">
     <rect id="rect51272" height="11.8" width="2.4" y="3563.5" x="409.5"/>
     <rect id="rect51274" height="11.8" width="2.4" y="3563.5" x="415.1"/>
     <rect id="rect51276" height="8" width="8" y="3574.4" x="409.5"/>
    </g>
    <text id="text61860" style="word-spacing:0px;letter-spacing:0px" xml:space="preserve" font-size="7.5px" y="3487.6843" x="352.51263" font-family="sans-serif" line-height="125%" fill="#000000"><tspan id="tspan61866" font-size="16.25px" y="3487.6843" x="352.51263" font-family="Linowrite"/></text>
    <g id="hitter" transform="matrix(1.1873 0 0 .91958 -241.94 304.09)">
     <path id="w20-0" d="m552.25 3542.5-0.1 8.2h-0.6l0.1-8.3c0.2 0.1 0.4 0.1 0.6 0.1z" stroke="#d8e6e3" stroke-miterlimit="22.926" stroke-width="1.1999" fill="none"/>
     <path id="s20-3" style="color-rendering:auto;color:#000000;isolation:auto;mix-blend-mode:normal;shape-rendering:auto;solid-color:#000000;image-rendering:auto" d="m552.5 3541.5-0.6 25.3h-0.6l0.6-25.3h0.6z" fill="#d8e6e3"/>
    </g>
   </g>
  </g>
  <g id="clickHere" transform="translate(266.73 17.03)">
   <rect id="rect4331" style="color-rendering:auto;color:#000000;isolation:auto;mix-blend-mode:normal;shape-rendering:auto;solid-color:#000000;image-rendering:auto" fill-opacity=".0039216" transform="translate(-92.457 -3283.5)" height="21.718" width="100.01" y="3515" x="98.964" fill="#c83232"/>
   <rect id="rect4333" style="color-rendering:auto;color:#000000;isolation:auto;mix-blend-mode:normal;shape-rendering:auto;solid-color:#000000;image-rendering:auto" fill-opacity=".0039216" transform="translate(-92.457 -3283.5)" height="15.657" width="114.15" y="3519" x="93.914" fill="#c83232"/>
   <g id="text58596" fill="#ee4047" transform="matrix(.89297 0 0 .89297 -7.5036 26.703)">
    <g id="g4363" fill="#ee4047" transform="translate(9.5965 83.843)">
     <path id="path4345" d="m43.394 160.36q-0.5608 0.26847-1.0679 0.41762-0.50114 0.14915-1.0679 0.14915-0.72188 0-1.3244-0.20881-0.60256-0.21478-1.0321-0.64433-0.43552-0.42955-0.67415-1.0858-0.23864-0.65626-0.23864-1.5333 0-1.6347 0.8949-2.5654 0.90086-0.93069 2.3745-0.93069 0.57273 0 1.1216 0.16108 0.55484 0.16108 1.0142 0.39375v1.2469h-0.05966q-0.51307-0.39972-1.0619-0.61449-0.5429-0.21478-1.0619-0.21478-0.95456 0-1.5094 0.64433-0.54887 0.63835-0.54887 1.8793 0 1.2051 0.53694 1.8554 0.5429 0.64432 1.5213 0.64432 0.34006 0 0.69205-0.0895t0.63239-0.23268q0.2446-0.12528 0.45938-0.2625 0.21477-0.14318 0.34006-0.2446h0.05966v1.235z"/>
     <path id="path4347" d="m45.972 160.78h-1.1216v-9.283h1.1216v9.283z"/>
     <path id="path4349" d="m49.36 153h-1.2648v-1.1634h1.2648v1.1634zm-0.07159 7.7796h-1.1216v-6.664h1.1216v6.664z"/>
     <path id="path4351" d="m56.4 160.36q-0.5608 0.26847-1.0679 0.41762-0.50114 0.14915-1.0679 0.14915-0.72188 0-1.3244-0.20881-0.60256-0.21478-1.0321-0.64433-0.43552-0.42955-0.67415-1.0858-0.23864-0.65626-0.23864-1.5333 0-1.6347 0.8949-2.5654 0.90086-0.93069 2.3745-0.93069 0.57273 0 1.1216 0.16108 0.55484 0.16108 1.0142 0.39375v1.2469h-0.05966q-0.51307-0.39972-1.0619-0.61449-0.5429-0.21478-1.0619-0.21478-0.95455 0-1.5094 0.64433-0.54887 0.63835-0.54887 1.8793 0 1.2051 0.53694 1.8554 0.5429 0.64432 1.5213 0.64432 0.34006 0 0.69205-0.0895t0.63239-0.23268q0.2446-0.12528 0.45938-0.2625 0.21477-0.14318 0.34006-0.2446h0.05966v1.235z"/>
     <path id="path4353" d="m63.893 160.78h-1.4796l-2.6728-2.9174-0.72785 0.69205v2.2253h-1.1216v-9.283h1.1216v5.954l3.2395-3.335h1.4139l-3.0963 3.0784 3.323 3.5856z"/>
     <path id="path4355" d="m74.942 160.78h-1.1216v-3.7944q0-0.45938-0.05369-0.8591-0.05369-0.40568-0.19688-0.63239-0.14915-0.25057-0.42955-0.36989-0.2804-0.12528-0.72785-0.12528-0.45938 0-0.96052 0.2267-0.50114 0.22671-0.96052 0.5787v4.9756h-1.1216v-9.283h1.1216v3.3588q0.525-0.43551 1.0858-0.68012 0.5608-0.2446 1.1514-0.2446 1.0798 0 1.6466 0.65029 0.56677 0.65029 0.56677 1.8733v4.3253z"/>
     <path id="path4357" d="m82.68 157.56h-4.91q0 0.6145 0.18494 1.0739 0.18494 0.45341 0.50711 0.74574 0.31023 0.28637 0.73381 0.42955 0.42955 0.14318 0.94262 0.14318 0.68012 0 1.3662-0.26846 0.69205-0.27444 0.98438-0.53694h0.05966v1.223q-0.56677 0.23864-1.1574 0.39972t-1.2409 0.16108q-1.6585 0-2.5892-0.89489-0.93069-0.90086-0.93069-2.5534 0-1.6347 0.88893-2.5952 0.8949-0.96052 2.3506-0.96052 1.3483 0 2.0762 0.78751 0.73381 0.7875 0.73381 2.2372v0.60853zm-1.0918-0.8591q-0.006-0.88296-0.44745-1.3662-0.43552-0.48325-1.3304-0.48325-0.90086 0-1.4378 0.53097-0.53097 0.53098-0.60256 1.3185h3.8182z"/>
     <path id="path4359" d="m88.539 155.34h-0.05966q-0.25057-0.0597-0.48921-0.0835-0.23267-0.0298-0.55484-0.0298-0.51904 0-1.0023 0.23268-0.48324 0.2267-0.93069 0.59063v4.731h-1.1216v-6.664h1.1216v0.98439q0.66819-0.53694 1.1753-0.75768 0.51307-0.22671 1.044-0.22671 0.29233 0 0.42358 0.0179 0.13125 0.0119 0.39375 0.0537v1.1514z"/>
     <path id="path4361" d="m95.185 157.56h-4.91q0 0.6145 0.18494 1.0739 0.18494 0.45341 0.50711 0.74574 0.31023 0.28637 0.73381 0.42955 0.42955 0.14318 0.94262 0.14318 0.68012 0 1.3662-0.26846 0.69205-0.27444 0.98438-0.53694h0.05966v1.223q-0.56677 0.23864-1.1574 0.39972t-1.2409 0.16108q-1.6585 0-2.5892-0.89489-0.93069-0.90086-0.93069-2.5534 0-1.6347 0.88893-2.5952 0.8949-0.96052 2.3506-0.96052 1.3483 0 2.0762 0.78751 0.73381 0.7875 0.73381 2.2372v0.60853zm-1.0918-0.8591q-0.006-0.88296-0.44745-1.3662-0.43552-0.48325-1.3304-0.48325-0.90086 0-1.4378 0.53097-0.53097 0.53098-0.60256 1.3185h3.8182z"/>
    </g>
   </g>
   <g id="g58598" transform="matrix(.82121 0 0 .82121 -278.9 -2653.3)">
    <path id="path58600" d="m459.8 3536.5h-4.6v-0.9h4.5l0.1 0.9zm-9.1 0h-4.5v-0.9h4.5v0.9zm-9 0h-4.5v-0.9h4.5v0.9zm-9 0h-4.5v-0.9h4.5v0.9zm-9 0h-4.5v-0.9h4.5v0.9zm-9.1 0h-4.5v-0.9h4.5v0.9zm-9 0h-4.5v-0.9h4.5v0.9zm-9 0h-4.5v-0.9h4.5v0.9zm-9 0h-4.5v-0.9h4.5v0.9zm-9 0h-4.5v-0.9h4.5v0.9zm-9.1 0h-4.5v-0.9h4.5v0.9zm-9.1-0.3c-1.5-0.4-3-1-4.2-2l0.5-0.7c1.2 0.9 2.5 1.5 3.9 1.8l-0.2 0.9zm103.9-0.7-0.4-0.8c1.3-0.6 2.5-1.4 3.5-2.5l0.7 0.6c-1.1 1.1-2.3 2.1-3.8 2.7zm-111.2-4.8c-0.8-1.4-1.3-2.9-1.4-4.4l0.9-0.1c0.1 1.4 0.6 2.8 1.3 4.1l-0.8 0.4zm117.4-2-0.9-0.3c0.3-1 0.5-2.1 0.5-3.3v-1l0.9-0.1c0 0.4 0.1 0.7 0.1 1.1-0.1 1.3-0.3 2.5-0.6 3.6zm-117.4-6.8-0.9-0.3c0.5-1.5 1.3-2.8 2.4-4l0.7 0.6c-1 1.1-1.7 2.4-2.2 3.7zm115.7-1.8c-0.7-1.2-1.7-2.4-2.8-3.2l0.5-0.7c1.2 0.9 2.3 2.1 3.1 3.5l-0.8 0.4zm-110-4.4-0.4-0.8c1.4-0.6 3-1 4.6-1v0.9c-1.5 0-2.9 0.3-4.2 0.9zm103.2-0.6c-0.8-0.2-1.5-0.3-2.3-0.3h-2.1v-0.9h2.1c0.8 0 1.7 0.1 2.5 0.3l-0.2 0.9zm-8.9-0.3h-4.5v-0.9h4.5v0.9zm-9 0h-4.5v-0.9h4.5v0.9zm-9 0h-4.5v-0.9h4.5v0.9zm-9 0h-4.5v-0.9h4.5v0.9zm-9 0h-4.5v-0.9h4.5v0.9zm-9 0h-4.5v-0.9h4.5v0.9zm-9.1 0h-4.5v-0.9h4.5v0.9zm-9 0h-4.5v-0.9h4.5v0.9zm-9 0h-4.5v-0.9h4.5v0.9zm-9 0h-4.5v-0.9h4.5v0.9z"/>
   </g>
  </g>
 </g>
</svg>
